<?xml version="1.0" encoding="UTF-8"?>
<svg id="Capa_2" data-name="Capa 2" xmlns="http://www.w3.org/2000/svg" xmlns:xlink="http://www.w3.org/1999/xlink" viewBox="0 0 275.95 32.7">
  <defs>
    <style>
      .cls-1 {
        fill: #fff;
      }

      .cls-2 {
        filter: url(#drop-shadow-1);
      }
    </style>
    <filter id="drop-shadow-1" x="-1.61" y="-1.6" width="283" height="40" filterUnits="userSpaceOnUse">
      <feOffset dx="2" dy="2"/>
      <feGaussianBlur result="blur" stdDeviation="1"/>
      <feFlood flood-color="#000" flood-opacity=".34"/>
      <feComposite in2="blur" operator="in"/>
      <feComposite in="SourceGraphic"/>
    </filter>
  </defs>
  <g id="Capa_1-2" data-name="Capa 1">
    <g class="cls-2">
      <path class="cls-1" d="M9.31,28.98c.62-.59,1.17-1.47,1.66-2.63.49-1.16.9-2.44,1.25-3.84.22-.86.46-1.95.73-3.26.27-1.31.54-2.72.81-4.23.27-1.51.55-3.02.83-4.53.28-1.51.54-2.93.77-4.25.23-1.32.44-2.44.63-3.36.65-.03,1.31-.04,2-.04h2.37c.59,0,1.3-.1,2.1-.3.81-.2,1.67-.73,2.59-1.6-.73-.11-1.74-.23-3.03-.36-1.3-.13-2.71-.26-4.25-.36-1.54-.11-3.02-.16-4.45-.16C10.43.04,8.28.34,6.88.93c-1.4.59-2.25,1.57-2.55,2.91,1-.19,1.97-.35,2.91-.49.94-.13,1.95-.24,3.01-.32,1.07-.08,2.29-.13,3.66-.16-.3.86-.61,1.96-.93,3.28-.32,1.32-.66,2.79-1.01,4.39-.35,1.61-.72,3.26-1.11,4.98-.39,1.71-.8,3.39-1.21,5.04-.42,1.65-.85,3.19-1.29,4.63-.45,1.44-.91,2.68-1.4,3.7-1.19,0-2.29.08-3.32.24-1.03.16-1.86.51-2.51,1.03-.65.53-1.02,1.37-1.13,2.53,1.03-.16,1.95-.3,2.77-.4.82-.11,1.68-.18,2.57-.22.89-.04,1.94-.07,3.14-.08,1.2-.01,2.7-.02,4.51-.02.62,0,1.42-.13,2.39-.38.97-.26,2-.88,3.08-1.88-1.75-.05-3.36-.16-4.82-.32-1.46-.16-2.9-.3-4.33-.4Z"/>
      <path class="cls-1" d="M93.3,27.09c-1.42,1.23-2.8,1.84-4.15,1.84-.76,0-1.31-.23-1.66-.69-.35-.46-.53-1.24-.53-2.35,0-1.32.21-2.68.63-4.07.42-1.39.91-2.74,1.48-4.07h.49c1.13-.03,2.32-.08,3.56-.16,1.24-.08,2.6-.19,4.09-.32v-1.34c-1,.11-1.98.18-2.93.22s-2.03.06-3.22.06h-1.25c.75-1.51,1.54-2.93,2.35-4.27.81-1.34,1.49-2.5,2.04-3.5.55-1,.83-1.77.83-2.31,0-.38-.12-.67-.36-.87-.24-.2-.5-.3-.77-.3-.46,0-.99.3-1.58.91-.59.61-1.22,1.44-1.88,2.49-.66,1.05-1.32,2.25-1.98,3.58-.66,1.34-1.27,2.72-1.84,4.15-.3-.03-.59-.05-.87-.08-.28-.03-.64-.07-1.07-.12v1.25c.24.11.49.18.75.22.26.04.48.09.67.14-.65,1.75-1.18,3.45-1.6,5.1-.12.46-.21.89-.3,1.3-.4.55-.8,1.02-1.22,1.39-.81.72-1.63,1.18-2.47,1.4.05-.24.09-.5.12-.77.03-.27.04-.57.04-.89,0-1.21-.2-2.4-.59-3.56-.39-1.16-.78-2.26-1.17-3.3-.39-1.04-.59-1.96-.59-2.77,0-.38.03-.67.1-.89.07-.22.1-.4.1-.57-.03-.22-.12-.4-.26-.57-.15-.16-.38-.24-.71-.24-.49,0-.91.22-1.27.67-.36.45-.55,1.21-.55,2.29v.4c-.51,1.13-1.13,2.17-1.84,3.1s-1.41,1.75-2.08,2.45c-.13.13-.33.25-.6.35l-.29-.23c-.09.17-.19.33-.28.5-.12.06-.24.13-.36.21-.32.2-.59.52-.81.95-.13.25-.21.57-.26.94-.26.31-.52.62-.81.92-1.01,1.05-2.09,1.9-3.24,2.53-1.15.63-2.29.95-3.42.95-.76,0-1.35-.13-1.78-.4-.43-.27-.74-.59-.93-.97-.19-.38-.3-.73-.34-1.07s-.06-.57-.06-.71c0-.27,0-.47.02-.59.01-.12.03-.24.06-.34,1.21-.13,2.42-.42,3.62-.87,1.2-.44,2.3-1.02,3.3-1.72,1-.7,1.79-1.5,2.39-2.39.59-.89.89-1.85.89-2.87,0-1.08-.32-1.8-.95-2.17s-1.3-.55-2-.55c-1.24,0-2.48.36-3.72,1.09-1.24.73-2.37,1.68-3.4,2.85-1.03,1.17-1.84,2.43-2.45,3.76-.39.85-.64,1.67-.78,2.47-.48.42-.99.63-1.51.63s-.9-.15-1.15-.47c-.26-.31-.42-.69-.49-1.13-.07-.45-.1-.86-.1-1.23,0-1.16.11-2.02.32-2.59.22-.57.43-1.01.65-1.34.22-.32.32-.69.32-1.09,0-.32-.12-.7-.36-1.13-.24-.43-.7-.65-1.38-.65-.59,0-1.08.31-1.46.93-.38.62-.59,1.85-.65,3.68-.4.89-.87,1.81-1.4,2.77-.53.96-1.08,1.85-1.66,2.67-.58.82-1.15,1.5-1.72,2.02-.57.53-1.09.79-1.58.79-.32,0-.53-.2-.61-.59-.08-.39-.12-1-.12-1.84s.03-1.75.1-2.67c.07-.92.1-1.78.1-2.59s-.06-1.3-.18-1.56c-.12-.26-.51-.38-1.15-.38-.7,0-1.13.15-1.27.44-.15.3-.24.85-.26,1.66-.04.9-.06,1.66-.09,2.31-.32.56-.66,1.12-1.02,1.68-.63.96-1.3,1.75-2,2.37-.7.62-1.38.93-2.02.93-.24,0-.47-.09-.67-.26-.2-.18-.3-.48-.3-.91,0-.59.13-1.2.38-1.82.26-.62.52-1.28.79-1.98.27-.7.4-1.46.4-2.27,0-.94-.28-1.81-.83-2.59-.55-.78-1.41-1.17-2.57-1.17-.92,0-1.83.26-2.73.79-.9.53-1.77,1.21-2.61,2.04-.84.84-1.61,1.73-2.31,2.67.22-.81.38-1.53.51-2.17.12-.63.18-1.11.18-1.44,0-.81-.47-1.21-1.42-1.21-.43,0-.84.11-1.23.32-.39.22-.68.43-.87.65,0,.86-.14,1.82-.4,2.87-.27,1.05-.58,2.06-.93,3.01-.35.96-.67,1.78-.95,2.47-.28.69-.44,1.1-.47,1.23.32.43.72.73,1.17.91.46.18.94.26,1.46.26.51-.86,1.12-1.83,1.82-2.91.7-1.08,1.45-2.12,2.25-3.12.8-1,1.62-1.83,2.47-2.49.85-.66,1.68-.99,2.49-.99.38,0,.71.11.99.34.28.23.42.64.42,1.23s-.09,1.16-.28,1.78c-.19.62-.38,1.23-.57,1.84-.19.61-.28,1.18-.28,1.72,0,.81.28,1.48.83,2,.55.53,1.36.79,2.41.79s2.06-.33,2.93-.99c.88-.66,1.67-1.54,2.39-2.63.18-.27.34-.58.51-.87,0,.16,0,.3,0,.4,0,1.43.2,2.6.59,3.5.39.9,1.09,1.36,2.08,1.36.86,0,1.74-.4,2.63-1.19s1.75-1.79,2.57-2.97c.82-1.19,1.56-2.39,2.21-3.6.3,1.08.72,1.98,1.27,2.69.55.72,1.27,1.07,2.17,1.07.66,0,1.35-.27,2.07-.8,0,.04,0,.07,0,.11,0,1.4.47,2.57,1.4,3.5.93.93,2.26,1.4,3.99,1.4,1.46,0,2.88-.34,4.27-1.01,1.39-.67,2.66-1.62,3.8-2.83.11-.12.21-.24.31-.36.08.53.22,1.05.43,1.56.35.85.94,1.55,1.76,2.1.82.55,1.91.83,3.26.83,1.24,0,2.35-.27,3.34-.81.98-.54,1.69-1.36,2.12-2.47,1.29-.22,2.43-.79,3.4-1.72.13-.13.25-.27.37-.41-.03.34-.05.66-.05.96,0,1.43.36,2.5,1.09,3.2.73.7,1.69,1.05,2.87,1.05,1.29,0,2.55-.37,3.76-1.11,1.21-.74,2.34-1.76,3.38-3.06s1.91-2.74,2.61-4.33l-.57-.4c-1.05,2.1-2.29,3.77-3.7,5ZM60.34,21.04c.51-.86,1.09-1.65,1.74-2.37.65-.71,1.31-1.29,1.98-1.74.67-.45,1.32-.67,1.94-.67.24,0,.42.05.53.16.11.11.16.31.16.61,0,.76-.26,1.5-.77,2.25-.51.74-1.17,1.42-1.96,2.04-.8.62-1.63,1.13-2.49,1.54-.86.4-1.65.65-2.35.73.3-.84.7-1.69,1.21-2.55ZM75.88,29.02c-.46.27-.96.4-1.5.4-1,0-1.75-.39-2.27-1.17-.51-.78-.77-1.62-.77-2.51,0-.65.19-1.01.57-1.09.49.65,1.17,1.28,2.06,1.9.89.62,1.89,1.05,2.99,1.29-.27.51-.63.9-1.09,1.17ZM77.39,25.96c-.01.26-.05.48-.1.67-1.08-.27-2.04-.73-2.87-1.38-.84-.65-1.47-1.34-1.9-2.06.57-.59,1.17-1.38,1.82-2.35.65-.97,1.21-1.88,1.7-2.71.3,1.24.59,2.46.89,3.64.3,1.19.46,2.39.49,3.6,0,.14,0,.33-.02.59Z"/>
      <path class="cls-1" d="M112.92,11.72c.42.26.88.38,1.4.38.73,0,1.4-.26,2.02-.79.62-.53.93-1.07.93-1.64s-.17-.96-.51-1.17c-.34-.22-.75-.32-1.23-.32-.76,0-1.48.23-2.19.69-.7.46-1.05,1.01-1.05,1.66,0,.54.21.94.63,1.19Z"/>
      <path class="cls-1" d="M134.7,25.03c-.63.96-1.3,1.75-2,2.37-.7.62-1.38.93-2.02.93-.24,0-.47-.09-.67-.26-.2-.18-.3-.48-.3-.91,0-.59.13-1.2.38-1.82.26-.62.52-1.28.79-1.98.27-.7.4-1.46.4-2.27,0-.94-.28-1.81-.83-2.59-.55-.78-1.41-1.17-2.57-1.17-.92,0-1.83.26-2.73.79-.9.53-1.77,1.21-2.61,2.04s-1.61,1.73-2.31,2.67c.22-.81.38-1.53.51-2.17.12-.63.18-1.11.18-1.44,0-.81-.47-1.21-1.42-1.21-.43,0-.84.11-1.23.32-.39.22-.68.43-.87.65,0,.86-.14,1.82-.4,2.87-.15.57-.3,1.12-.47,1.65-.91,1.59-1.79,2.76-2.64,3.49-1.08.92-2.08,1.38-2.99,1.38-.59,0-1.05-.14-1.36-.42-.31-.28-.47-.86-.47-1.72s.21-1.83.63-2.81c.42-.98.9-1.94,1.46-2.85.55-.92,1.04-1.73,1.46-2.43.42-.7.63-1.23.63-1.58,0-.4-.12-.7-.36-.89-.24-.19-.53-.28-.85-.28-.59,0-1.19.29-1.78.87-.59.58-1.15,1.33-1.66,2.25-.51.92-.96,1.9-1.36,2.93-.39,1.04-.7,2.03-.91,2.97-.22.94-.32,1.73-.32,2.35,0,1,.3,1.85.89,2.55.59.7,1.48,1.05,2.67,1.05,1.67,0,3.24-.66,4.69-1.98.27-.25.53-.53.78-.82-.22.55-.35.9-.38,1.02.32.43.71.73,1.17.91.46.18.94.26,1.46.26.51-.86,1.12-1.83,1.82-2.91.7-1.08,1.45-2.12,2.25-3.12.8-1,1.62-1.83,2.47-2.49.85-.66,1.68-.99,2.49-.99.38,0,.71.11.99.34.28.23.43.64.43,1.23s-.1,1.16-.28,1.78c-.19.62-.38,1.23-.57,1.84-.19.61-.28,1.18-.28,1.72,0,.81.28,1.48.83,2,.55.53,1.36.79,2.41.79s2.06-.33,2.93-.99c.88-.66,1.67-1.54,2.39-2.63.71-1.09,1.36-2.3,1.92-3.62l-.69-.57c-.49.97-1.05,1.94-1.68,2.89Z"/>
      <path class="cls-1" d="M170.29,11.61c.65-1.02.97-2.25.97-3.68,0-1.32-.34-2.47-1.03-3.46-.69-.98-1.59-1.81-2.71-2.47-1.12-.66-2.34-1.16-3.66-1.5-1.32-.34-2.62-.51-3.88-.51-1.19,0-2.37.12-3.56.36-1.19.24-2.29.54-3.3.89-1.01.35-1.9.69-2.65,1.01,0,.19.09.4.28.65.19.24.41.46.67.65.26.19.45.28.59.28.22,0,.55-.13,1.01-.38.46-.26,1.05-.55,1.78-.89.73-.34,1.6-.61,2.63-.83-1.03,2.27-1.95,4.44-2.77,6.52-.82,2.08-1.61,4.15-2.35,6.21-.74,2.06-1.48,4.21-2.21,6.43-.73,2.23-1.51,4.62-2.35,7.18-.11.35-.22.73-.34,1.13s-.18.78-.18,1.13c0,.67.36,1.23,1.07,1.66s1.48.65,2.29.65c.62-2.16,1.29-4.57,2.02-7.22s1.47-5.32,2.23-7.99h.24c.49,0,1.21-.04,2.19-.12.97-.08,2.07-.23,3.3-.44,1.23-.22,2.46-.54,3.7-.97,1.24-.43,2.39-1,3.46-1.7,1.07-.7,1.92-1.56,2.57-2.59ZM163.83,13.74c-1.23.71-2.6,1.27-4.11,1.68-1.51.4-3.02.66-4.53.77.81-2.81,1.66-5.5,2.55-8.07.89-2.58,1.82-4.81,2.79-6.7,1.24.03,2.42.26,3.54.69,1.12.43,2.04,1.07,2.75,1.9.71.84,1.07,1.93,1.07,3.28,0,1.43-.37,2.69-1.11,3.76-.74,1.08-1.73,1.98-2.95,2.69Z"/>
      <path class="cls-1" d="M242.91,11.72c.42.26.88.38,1.4.38.73,0,1.4-.26,2.02-.79.62-.53.93-1.07.93-1.64s-.17-.96-.51-1.17c-.34-.22-.75-.32-1.23-.32-.76,0-1.48.23-2.19.69-.7.46-1.05,1.01-1.05,1.66,0,.54.21.94.63,1.19Z"/>
      <path class="cls-1" d="M275.14,22.18c-.67,1.29-1.52,2.47-2.53,3.52s-2.09,1.9-3.24,2.53c-1.15.63-2.29.95-3.42.95-.76,0-1.35-.13-1.78-.4-.43-.27-.74-.59-.93-.97-.19-.38-.3-.73-.34-1.07s-.06-.57-.06-.71c0-.27,0-.47.02-.59.01-.12.03-.24.06-.34,1.21-.13,2.42-.42,3.62-.87,1.2-.44,2.3-1.02,3.3-1.72,1-.7,1.79-1.5,2.39-2.39.59-.89.89-1.85.89-2.87,0-1.08-.32-1.8-.95-2.17-.63-.36-1.3-.55-2-.55-1.24,0-2.48.36-3.72,1.09-1.24.73-2.37,1.68-3.4,2.85-1.03,1.17-1.84,2.43-2.45,3.76-.38.85-.63,1.66-.77,2.45-.2.23-.41.44-.62.63-.81.72-1.63,1.18-2.47,1.4.05-.24.09-.5.12-.77.03-.27.04-.57.04-.89,0-1.21-.2-2.4-.59-3.56-.39-1.16-.78-2.26-1.17-3.3-.39-1.04-.59-1.96-.59-2.77,0-.38.03-.67.1-.89.07-.22.1-.4.1-.57-.03-.22-.11-.4-.26-.57-.15-.16-.38-.24-.71-.24-.49,0-.91.22-1.27.67-.36.45-.55,1.21-.55,2.29v.4c-.51,1.13-1.13,2.17-1.84,3.1-.72.93-1.41,1.75-2.08,2.45-.13.13-.33.25-.59.35l-.21-.23c-.07.15-.15.28-.22.42-.16.08-.33.18-.51.28-.32.2-.59.52-.81.95-.18.36-.28.85-.31,1.45-.51.71-1.02,1.28-1.51,1.7-1.08.92-2.08,1.38-2.99,1.38-.59,0-1.05-.14-1.36-.42-.31-.28-.47-.86-.47-1.72s.21-1.83.63-2.81c.42-.98.9-1.94,1.46-2.85.55-.92,1.04-1.73,1.46-2.43.42-.7.63-1.23.63-1.58,0-.4-.12-.7-.36-.89-.24-.19-.53-.28-.85-.28-.59,0-1.19.29-1.78.87-.59.58-1.15,1.33-1.66,2.25-.51.92-.96,1.9-1.36,2.93-.27.71-.48,1.39-.66,2.06-.4.66-.81,1.26-1.26,1.79-.76.9-1.5,1.59-2.23,2.04-.73.46-1.39.69-1.98.69-.3,0-.51-.11-.63-.34-.12-.23-.18-.67-.18-1.32,0-1.46.22-3.01.67-4.67s1.01-3.35,1.7-5.06c.69-1.71,1.43-3.39,2.23-5.02.8-1.63,1.54-3.15,2.23-4.55.69-1.4,1.25-2.61,1.7-3.62.44-1.01.67-1.75.67-2.21,0-.35-.12-.64-.34-.87-.23-.23-.49-.34-.79-.34-.49,0-1.02.34-1.6,1.03-.58.69-1.19,1.61-1.82,2.77-.63,1.16-1.27,2.48-1.92,3.97-.65,1.48-1.29,3.03-1.94,4.63-.65,1.61-1.27,3.18-1.86,4.71-.86,2.24-1.83,4.16-2.89,5.77-1.07,1.61-2.1,2.83-3.12,3.68-1.01.85-1.88,1.27-2.61,1.27-.43,0-.76-.15-.97-.47-.22-.31-.32-.72-.32-1.23,0-.62.13-1.36.4-2.21.27-.85.65-1.73,1.15-2.65.5-.92,1.09-1.77,1.76-2.55.67-.78,1.42-1.42,2.23-1.92.81-.5,1.66-.75,2.55-.75.3,0,.58.03.85.1.27.07.46.18.57.34.22-.13.35-.29.4-.47.05-.18.08-.33.08-.47,0-.46-.18-.79-.53-.99-.35-.2-.84-.3-1.46-.3-1.13,0-2.25.28-3.36.85-1.11.57-2.15,1.31-3.14,2.23-.98.92-1.85,1.93-2.59,3.04-.74,1.11-1.33,2.21-1.76,3.32-.03.09-.06.17-.09.26-.85,1.34-1.69,2.36-2.52,3.04-1.17.96-2.08,1.44-2.73,1.44-.43,0-.74-.15-.93-.47-.19-.31-.28-.64-.28-.99,0-.46.11-.94.34-1.44.23-.5.5-1,.81-1.5.31-.5.58-.96.81-1.38.23-.42.34-.76.34-1.03,0-.3-.14-.54-.4-.73-.27-.19-.56-.33-.87-.43-.31-.09-.52-.15-.63-.18-.14,0-.24.07-.32.2-.51.67-1.12,1.49-1.82,2.45-.7.96-1.44,1.9-2.21,2.81-.77.92-1.53,1.68-2.29,2.29s-1.44.91-2.06.91-.93-.43-.93-1.29c0-.75.16-1.6.49-2.55.32-.94.77-1.91,1.34-2.89.57-.98,1.21-1.89,1.92-2.71.71-.82,1.46-1.49,2.25-2,.78-.51,1.55-.77,2.31-.77.7,0,1.16.22,1.38.65.22.43.32.92.32,1.46,0,.27-.02.53-.06.77-.04.24-.09.49-.14.73.7.14,1.31.04,1.82-.28.51-.32.77-.85.77-1.58,0-.97-.4-1.75-1.21-2.35-.81-.59-1.79-.89-2.95-.89s-2.21.27-3.32.81c-1.11.54-2.15,1.25-3.12,2.12-.97.88-1.83,1.86-2.59,2.93-.68.97-1.22,1.95-1.64,2.94,0,.01-.01.02-.02.03-.51.69-1.11,1.34-1.78,1.96-.67.62-1.36,1.13-2.06,1.52-.7.39-1.38.59-2.02.59-.27,0-.51-.06-.71-.18s-.3-.37-.3-.75c0-.51.18-1.12.53-1.82.35-.7.7-1.46,1.05-2.27.35-.81.53-1.6.53-2.39,0-.86-.22-1.58-.65-2.15-.43-.57-.93-1.04-1.5-1.42-.57-.38-1.07-.71-1.52-.99-.45-.28-.68-.57-.71-.87.05-.16.14-.42.26-.77s.18-.59.18-.73-.07-.38-.22-.75c-.15-.36-.38-.55-.71-.55-.4,0-.82.31-1.25.93-.43.62-.65,1.28-.65,1.98,0,.46.13.82.4,1.09-.57,1.59-1.16,3.04-1.78,4.33-.54,1.12-.97,2-1.33,2.67-.94,1.56-1.86,2.71-2.78,3.46-1.17.96-2.08,1.44-2.73,1.44-.43,0-.74-.15-.93-.47-.19-.31-.28-.64-.28-.99,0-.46.11-.94.34-1.44.23-.5.5-1,.81-1.5.31-.5.58-.96.81-1.38.23-.42.34-.76.34-1.03,0-.3-.14-.54-.4-.73-.27-.19-.56-.33-.87-.43-.31-.09-.52-.15-.63-.18-.14,0-.24.07-.32.2-.51.67-1.12,1.49-1.82,2.45-.7.96-1.44,1.9-2.21,2.81-.77.92-1.53,1.68-2.29,2.29s-1.44.91-2.06.91-.93-.43-.93-1.29c0-.75.16-1.6.49-2.55.32-.94.77-1.91,1.34-2.89.57-.98,1.21-1.89,1.92-2.71.71-.82,1.46-1.49,2.25-2,.78-.51,1.55-.77,2.31-.77.7,0,1.16.22,1.38.65.22.43.32.92.32,1.46,0,.27-.02.53-.06.77-.04.24-.09.49-.14.73.7.14,1.31.04,1.82-.28.51-.32.77-.85.77-1.58,0-.97-.4-1.75-1.21-2.35-.81-.59-1.79-.89-2.95-.89s-2.21.27-3.32.81c-1.11.54-2.15,1.25-3.12,2.12-.97.88-1.83,1.86-2.59,2.93-.76,1.08-1.35,2.17-1.78,3.28-.43,1.11-.65,2.13-.65,3.08,0,1.19.33,2.08.99,2.67.66.59,1.44.89,2.33.89,1.02,0,1.99-.38,2.89-1.13.9-.76,1.9-1.78,2.97-3.08v.2c.05.81.35,1.56.89,2.27.54.7,1.36,1.05,2.47,1.05,1.02,0,2.04-.32,3.04-.95,1-.63,1.95-1.51,2.85-2.63.7-.87,1.32-1.83,1.86-2.9.33-.6.71-1.28,1.13-2.08.74-1.39,1.41-2.83,2-4.31.54.27,1.01.61,1.42,1.03.4.42.61.94.61,1.56s-.2,1.39-.59,2.23c-.39.84-.78,1.69-1.15,2.55-.38.86-.57,1.67-.57,2.43,0,.89.31,1.6.93,2.12.62.53,1.43.79,2.43.79,1.21,0,2.41-.36,3.6-1.07.92-.56,1.78-1.24,2.57-2.04,0,.13-.02.27-.02.4,0,1.19.33,2.08.99,2.67.66.59,1.44.89,2.33.89,1.02,0,1.99-.38,2.89-1.13.9-.76,1.9-1.78,2.97-3.08v.2c.05.81.35,1.56.89,2.27.54.7,1.36,1.05,2.47,1.05,1.02,0,2.04-.32,3.04-.95.98-.62,1.91-1.48,2.8-2.57.02.78.19,1.43.54,1.94.36.54.81.94,1.34,1.19.53.26,1.04.38,1.56.38.81,0,1.66-.27,2.55-.81.89-.54,1.8-1.29,2.73-2.25.93-.96,1.81-2.04,2.65-3.26-.08.43-.16.87-.22,1.32-.07.44-.1.88-.1,1.31,0,.94.22,1.77.65,2.47.43.7,1.2,1.05,2.31,1.05,1.02,0,2.06-.32,3.12-.95,1.05-.63,2.04-1.52,2.95-2.65.05-.06.09-.12.14-.18,0,.12-.01.24-.01.34,0,1,.3,1.85.89,2.55.59.7,1.48,1.05,2.67,1.05,1.67,0,3.24-.66,4.69-1.98.45-.41.86-.88,1.26-1.39.09.43.22.86.39,1.29.35.85.94,1.55,1.76,2.1.82.55,1.91.83,3.26.83,1.24,0,2.35-.27,3.34-.81.98-.54,1.69-1.36,2.12-2.47,1.27-.21,2.38-.77,3.34-1.67.05,1.3.5,2.39,1.38,3.27.93.93,2.26,1.4,3.99,1.4,1.46,0,2.88-.34,4.27-1.01,1.39-.67,2.66-1.62,3.8-2.83,1.15-1.21,2.08-2.63,2.81-4.25l-.81-.65ZM264.58,21.04c.51-.86,1.09-1.65,1.74-2.37s1.31-1.29,1.98-1.74,1.32-.67,1.94-.67c.24,0,.42.05.53.16.11.11.16.31.16.61,0,.76-.26,1.5-.77,2.25-.51.74-1.17,1.42-1.96,2.04-.8.62-1.63,1.13-2.49,1.54-.86.4-1.65.65-2.35.73.3-.84.7-1.69,1.21-2.55ZM252.11,29.02c-.46.27-.96.4-1.5.4-1,0-1.75-.39-2.27-1.17-.51-.78-.77-1.62-.77-2.51,0-.65.19-1.01.57-1.09.49.65,1.17,1.28,2.06,1.9s1.89,1.05,2.99,1.29c-.27.51-.63.9-1.09,1.17ZM253.63,25.96c-.01.26-.05.48-.1.67-1.08-.27-2.04-.73-2.87-1.38-.84-.65-1.47-1.34-1.9-2.06.57-.59,1.17-1.38,1.82-2.35s1.21-1.88,1.7-2.71c.3,1.24.59,2.46.89,3.64.3,1.19.46,2.39.49,3.6,0,.14,0,.33-.02.59Z"/>
    </g>
  </g>
</svg>