<?xml version="1.0" encoding="UTF-8"?>
<svg id="Capa_2" data-name="Capa 2" xmlns="http://www.w3.org/2000/svg" xmlns:xlink="http://www.w3.org/1999/xlink" viewBox="0 0 526.63 169.57">
  <defs>
    <style>
      .cls-1 {
        fill: url(#Degradado_sin_nombre_1097-5);
      }

      .cls-2 {
        fill: url(#Degradado_sin_nombre_1097-2);
      }

      .cls-3 {
        fill: url(#Degradado_sin_nombre_1097-12);
      }

      .cls-4 {
        fill: url(#Degradado_sin_nombre_1097-16);
      }

      .cls-5 {
        fill: url(#Degradado_sin_nombre_1129-11);
      }

      .cls-6 {
        fill: url(#Degradado_sin_nombre_1129-13);
      }

      .cls-7 {
        fill: url(#Degradado_sin_nombre_1097-8);
      }

      .cls-8 {
        fill: url(#Degradado_sin_nombre_1097-13);
      }

      .cls-9 {
        fill: url(#Degradado_sin_nombre_1129-14);
      }

      .cls-10 {
        fill: url(#Degradado_sin_nombre_1129-5);
      }

      .cls-11 {
        fill: url(#Degradado_sin_nombre_1129-12);
      }

      .cls-12 {
        fill: url(#Degradado_sin_nombre_1129-6);
      }

      .cls-13 {
        fill: url(#Degradado_sin_nombre_1129-4);
      }

      .cls-14 {
        fill: url(#Degradado_sin_nombre_1129-7);
      }

      .cls-15 {
        fill: url(#Degradado_sin_nombre_1129-3);
      }

      .cls-16 {
        fill: url(#Degradado_sin_nombre_1097-6);
      }

      .cls-17 {
        fill: url(#Degradado_sin_nombre_1129-15);
      }

      .cls-18 {
        fill: url(#Degradado_sin_nombre_1097-9);
      }

      .cls-19 {
        fill: url(#Degradado_sin_nombre_1097-11);
      }

      .cls-20 {
        fill: url(#Degradado_sin_nombre_1129-8);
      }

      .cls-21 {
        fill: url(#Degradado_sin_nombre_1097-4);
      }

      .cls-22 {
        fill: url(#Degradado_sin_nombre_1097-7);
      }

      .cls-23 {
        fill: url(#Degradado_sin_nombre_1097-15);
      }

      .cls-24 {
        fill: url(#Degradado_sin_nombre_1097-14);
      }

      .cls-25 {
        fill: url(#Degradado_sin_nombre_1129-10);
      }

      .cls-26 {
        fill: url(#Degradado_sin_nombre_1097);
      }

      .cls-27 {
        fill: url(#Degradado_sin_nombre_1097-10);
      }

      .cls-28 {
        fill: url(#Degradado_sin_nombre_1129-16);
      }

      .cls-29 {
        fill: url(#Degradado_sin_nombre_1129);
      }

      .cls-30 {
        fill: url(#Degradado_sin_nombre_1097-3);
      }

      .cls-31 {
        fill: url(#Degradado_sin_nombre_1129-9);
      }

      .cls-32 {
        fill: url(#Degradado_sin_nombre_1129-2);
      }
    </style>
    <linearGradient id="Degradado_sin_nombre_1097" data-name="Degradado sin nombre 1097" x1="219.88" y1="-64.35" x2="284.02" y2="184.69" gradientUnits="userSpaceOnUse">
      <stop offset="0" stop-color="#006837"/>
      <stop offset=".09" stop-color="#1eae6d"/>
      <stop offset=".1" stop-color="#22b573"/>
      <stop offset=".15" stop-color="#21b371"/>
      <stop offset=".16" stop-color="#1eac6c"/>
      <stop offset=".18" stop-color="#18a063"/>
      <stop offset=".19" stop-color="#118f55"/>
      <stop offset=".2" stop-color="#077944"/>
      <stop offset=".2" stop-color="#006837"/>
      <stop offset=".25" stop-color="#006938"/>
      <stop offset=".26" stop-color="#03703d"/>
      <stop offset=".28" stop-color="#097c46"/>
      <stop offset=".29" stop-color="#108d54"/>
      <stop offset=".29" stop-color="#1aa365"/>
      <stop offset=".3" stop-color="#22b573"/>
      <stop offset=".3" stop-color="#1aa365"/>
      <stop offset=".31" stop-color="#108d54"/>
      <stop offset=".33" stop-color="#097c46"/>
      <stop offset=".34" stop-color="#03703d"/>
      <stop offset=".36" stop-color="#006938"/>
      <stop offset=".42" stop-color="#006837"/>
      <stop offset=".48" stop-color="#006938"/>
      <stop offset=".51" stop-color="#03703d"/>
      <stop offset=".52" stop-color="#097c46"/>
      <stop offset=".54" stop-color="#108d54"/>
      <stop offset=".55" stop-color="#1aa365"/>
      <stop offset=".55" stop-color="#22b573"/>
      <stop offset=".58" stop-color="#15975c"/>
      <stop offset=".61" stop-color="#097d47"/>
      <stop offset=".64" stop-color="#026d3b"/>
      <stop offset=".66" stop-color="#006837"/>
      <stop offset=".72" stop-color="#006938"/>
      <stop offset=".75" stop-color="#03703d"/>
      <stop offset=".76" stop-color="#097c46"/>
      <stop offset=".78" stop-color="#108d54"/>
      <stop offset=".79" stop-color="#1aa365"/>
      <stop offset=".79" stop-color="#22b573"/>
      <stop offset=".83" stop-color="#1faf6f"/>
      <stop offset=".87" stop-color="#19a163"/>
      <stop offset=".91" stop-color="#0e8951"/>
      <stop offset=".95" stop-color="#006837"/>
    </linearGradient>
    <linearGradient id="Degradado_sin_nombre_1129" data-name="Degradado sin nombre 1129" x1="93.67" y1="99.1" x2="434.96" y2="99.1" gradientUnits="userSpaceOnUse">
      <stop offset="0" stop-color="#006837" stop-opacity=".5"/>
      <stop offset=".05" stop-color="#129157" stop-opacity=".77"/>
      <stop offset=".1" stop-color="#22b573"/>
      <stop offset=".14" stop-color="#21b372" stop-opacity=".99"/>
      <stop offset=".16" stop-color="#1faf6e" stop-opacity=".97"/>
      <stop offset=".17" stop-color="#1ca869" stop-opacity=".92"/>
      <stop offset=".18" stop-color="#189e61" stop-opacity=".86"/>
      <stop offset=".19" stop-color="#129157" stop-opacity=".77"/>
      <stop offset=".19" stop-color="#0b814a" stop-opacity=".66"/>
      <stop offset=".2" stop-color="#026e3c" stop-opacity=".54"/>
      <stop offset=".2" stop-color="#006837" stop-opacity=".5"/>
      <stop offset=".24" stop-color="#006937" stop-opacity=".51"/>
      <stop offset=".26" stop-color="#026d3b" stop-opacity=".53"/>
      <stop offset=".27" stop-color="#057440" stop-opacity=".58"/>
      <stop offset=".28" stop-color="#097e48" stop-opacity=".64"/>
      <stop offset=".28" stop-color="#0f8b52" stop-opacity=".73"/>
      <stop offset=".29" stop-color="#169b5f" stop-opacity=".84"/>
      <stop offset=".3" stop-color="#1fae6d" stop-opacity=".96"/>
      <stop offset=".3" stop-color="#22b573"/>
      <stop offset=".3" stop-color="#1aa365"/>
      <stop offset=".31" stop-color="#108d54"/>
      <stop offset=".33" stop-color="#097c46"/>
      <stop offset=".34" stop-color="#03703d"/>
      <stop offset=".36" stop-color="#006938"/>
      <stop offset=".42" stop-color="#006837"/>
      <stop offset=".48" stop-color="#006938"/>
      <stop offset=".51" stop-color="#03703d"/>
      <stop offset=".52" stop-color="#097c46"/>
      <stop offset=".54" stop-color="#108d54"/>
      <stop offset=".55" stop-color="#1aa365"/>
      <stop offset=".55" stop-color="#22b573"/>
      <stop offset=".58" stop-color="#15975c"/>
      <stop offset=".61" stop-color="#097d47"/>
      <stop offset=".64" stop-color="#026d3b"/>
      <stop offset=".66" stop-color="#006837"/>
      <stop offset=".72" stop-color="#006938"/>
      <stop offset=".75" stop-color="#03703d"/>
      <stop offset=".76" stop-color="#097c46"/>
      <stop offset=".78" stop-color="#108d54"/>
      <stop offset=".79" stop-color="#1aa365"/>
      <stop offset=".79" stop-color="#22b573"/>
      <stop offset=".82" stop-color="#20b270" stop-opacity=".98"/>
      <stop offset=".85" stop-color="#1ca969" stop-opacity=".92"/>
      <stop offset=".88" stop-color="#169a5e" stop-opacity=".83"/>
      <stop offset=".91" stop-color="#0d864f" stop-opacity=".7"/>
      <stop offset=".94" stop-color="#026d3b" stop-opacity=".53"/>
      <stop offset=".95" stop-color="#006837" stop-opacity=".5"/>
    </linearGradient>
    <linearGradient id="Degradado_sin_nombre_1097-2" data-name="Degradado sin nombre 1097" x1="331.22" y1="-93.03" x2="395.37" y2="156.01" xlink:href="#Degradado_sin_nombre_1097"/>
    <linearGradient id="Degradado_sin_nombre_1129-2" data-name="Degradado sin nombre 1129" x1="329.96" y1="34.95" x2="403.3" y2="34.95" xlink:href="#Degradado_sin_nombre_1129"/>
    <linearGradient id="Degradado_sin_nombre_1097-3" data-name="Degradado sin nombre 1097" x1="258.13" y1="-74.2" x2="322.27" y2="174.84" xlink:href="#Degradado_sin_nombre_1097"/>
    <linearGradient id="Degradado_sin_nombre_1129-3" data-name="Degradado sin nombre 1129" x1="251.6" y1="34.54" x2="320.67" y2="34.54" xlink:href="#Degradado_sin_nombre_1129"/>
    <linearGradient id="Degradado_sin_nombre_1097-4" data-name="Degradado sin nombre 1097" x1="58.17" y1="-22.7" x2="122.31" y2="226.34" xlink:href="#Degradado_sin_nombre_1097"/>
    <linearGradient id="Degradado_sin_nombre_1129-4" data-name="Degradado sin nombre 1129" x1="50.21" y1="34.16" x2="112.3" y2="34.16" xlink:href="#Degradado_sin_nombre_1129"/>
    <linearGradient id="Degradado_sin_nombre_1097-5" data-name="Degradado sin nombre 1097" x1="119.78" y1="-38.57" x2="183.92" y2="210.47" xlink:href="#Degradado_sin_nombre_1097"/>
    <linearGradient id="Degradado_sin_nombre_1129-5" data-name="Degradado sin nombre 1129" x1="118.22" y1="34.64" x2="163.28" y2="34.64" xlink:href="#Degradado_sin_nombre_1129"/>
    <linearGradient id="Degradado_sin_nombre_1097-6" data-name="Degradado sin nombre 1097" x1="398.61" y1="-110.39" x2="462.75" y2="138.65" xlink:href="#Degradado_sin_nombre_1097"/>
    <linearGradient id="Degradado_sin_nombre_1129-6" data-name="Degradado sin nombre 1129" x1="413.13" y1="34.07" x2="475.35" y2="34.07" xlink:href="#Degradado_sin_nombre_1129"/>
    <linearGradient id="Degradado_sin_nombre_1097-7" data-name="Degradado sin nombre 1097" x1="460.7" y1="-126.42" x2="524.84" y2="122.62" xlink:href="#Degradado_sin_nombre_1097"/>
    <linearGradient id="Degradado_sin_nombre_1129-7" data-name="Degradado sin nombre 1129" x1="481.61" y1="34.6" x2="526.63" y2="34.6" xlink:href="#Degradado_sin_nombre_1129"/>
    <linearGradient id="Degradado_sin_nombre_1097-8" data-name="Degradado sin nombre 1097" x1="4.19" y1="-8.79" x2="68.33" y2="240.25" xlink:href="#Degradado_sin_nombre_1097"/>
    <linearGradient id="Degradado_sin_nombre_1129-8" data-name="Degradado sin nombre 1129" x1="0" y1="34.53" x2="45.74" y2="34.53" xlink:href="#Degradado_sin_nombre_1129"/>
    <linearGradient id="Degradado_sin_nombre_1097-9" data-name="Degradado sin nombre 1097" x1="194.08" y1="-57.7" x2="258.22" y2="191.34" xlink:href="#Degradado_sin_nombre_1097"/>
    <linearGradient id="Degradado_sin_nombre_1129-9" data-name="Degradado sin nombre 1129" x1="202.46" y1="34.63" x2="248.29" y2="34.63" xlink:href="#Degradado_sin_nombre_1129"/>
    <linearGradient id="Degradado_sin_nombre_1097-10" data-name="Degradado sin nombre 1097" x1="152.09" y1="-46.89" x2="216.23" y2="202.15" xlink:href="#Degradado_sin_nombre_1097"/>
    <linearGradient id="Degradado_sin_nombre_1129-10" data-name="Degradado sin nombre 1129" x1="187.04" y1="145.57" x2="223.88" y2="145.57" xlink:href="#Degradado_sin_nombre_1129"/>
    <linearGradient id="Degradado_sin_nombre_1097-11" data-name="Degradado sin nombre 1097" x1="250.31" y1="-72.19" x2="314.46" y2="176.85" xlink:href="#Degradado_sin_nombre_1097"/>
    <linearGradient id="Degradado_sin_nombre_1129-11" data-name="Degradado sin nombre 1129" x1="281.38" y1="145.68" x2="330.68" y2="145.68" xlink:href="#Degradado_sin_nombre_1129"/>
    <linearGradient id="Degradado_sin_nombre_1097-12" data-name="Degradado sin nombre 1097" x1="64.08" y1="-24.22" x2="128.23" y2="224.82" xlink:href="#Degradado_sin_nombre_1097"/>
    <linearGradient id="Degradado_sin_nombre_1129-12" data-name="Degradado sin nombre 1129" x1="92.5" y1="145.37" x2="124.92" y2="145.37" xlink:href="#Degradado_sin_nombre_1129"/>
    <linearGradient id="Degradado_sin_nombre_1097-13" data-name="Degradado sin nombre 1097" x1="352.27" y1="-98.45" x2="416.42" y2="150.59" xlink:href="#Degradado_sin_nombre_1097"/>
    <linearGradient id="Degradado_sin_nombre_1129-13" data-name="Degradado sin nombre 1129" x1="400.16" y1="145.38" x2="432.18" y2="145.38" xlink:href="#Degradado_sin_nombre_1129"/>
    <linearGradient id="Degradado_sin_nombre_1097-14" data-name="Degradado sin nombre 1097" x1="197.4" y1="-58.56" x2="261.54" y2="190.48" xlink:href="#Degradado_sin_nombre_1097"/>
    <linearGradient id="Degradado_sin_nombre_1129-14" data-name="Degradado sin nombre 1129" x1="234.65" y1="145.41" x2="270" y2="145.41" xlink:href="#Degradado_sin_nombre_1129"/>
    <linearGradient id="Degradado_sin_nombre_1097-15" data-name="Degradado sin nombre 1097" x1="299.81" y1="-84.94" x2="363.96" y2="164.1" xlink:href="#Degradado_sin_nombre_1097"/>
    <linearGradient id="Degradado_sin_nombre_1129-15" data-name="Degradado sin nombre 1129" x1="339.1" y1="144.36" x2="390.29" y2="144.36" xlink:href="#Degradado_sin_nombre_1129"/>
    <linearGradient id="Degradado_sin_nombre_1097-16" data-name="Degradado sin nombre 1097" x1="108.73" y1="-35.72" x2="172.88" y2="213.32" xlink:href="#Degradado_sin_nombre_1097"/>
    <linearGradient id="Degradado_sin_nombre_1129-16" data-name="Degradado sin nombre 1129" x1="139.47" y1="145.4" x2="175.48" y2="145.4" xlink:href="#Degradado_sin_nombre_1129"/>
  </defs>
  <g id="Capa_1-2" data-name="Capa 1">
    <g>
      <g>
        <path class="cls-26" d="M416.28,103.74c-45.28,9.75-92.58,9.01-138.13,1.76l-31.45-5.01c-17.71-2.82-34.93-4.2-52.9-4.58-15.84-.66-30.98-1.07-46.72.41-18.26.9-35.16,4.84-53.22,8.7,50.9-19.29,121.04-21.55,174.37-13.31l55.48,8.58c16.47,2.55,32.34,3.03,48.9,3.48,19.92.54,38.99-1.89,59.01-4.79-4.92,2.26-9.98,3.61-15.32,4.76Z"/>
        <path class="cls-29" d="M206.95,87.2c21.46,0,42.41,1.6,61.26,4.52l55.48,8.58c16.47,2.55,32.34,3.03,48.9,3.48,1.88.05,3.75.07,5.61.07,17.91,0,35.26-2.24,53.4-4.87-4.92,2.26-9.98,3.61-15.32,4.76-23.32,5.02-47.17,7.26-71.05,7.26-22.48,0-44.99-1.99-67.08-5.5l-31.45-5.01c-17.71-2.82-34.93-4.2-52.9-4.58-7.93-.33-15.68-.6-23.42-.6s-15.44.27-23.3,1.01c-18.26.9-35.16,4.84-53.22,8.7,32.91-12.47,73.86-17.82,113.1-17.82M206.95,86.7c-42.66,0-82.89,6.34-113.28,17.85l.28.96c1.59-.34,3.16-.68,4.73-1.02,16.35-3.53,31.79-6.86,48.41-7.68,7.21-.68,14.81-1.01,23.28-1.01,7.91,0,15.92.29,23.4.6,18.76.4,36.04,1.9,52.85,4.58l31.45,5.01c22.96,3.66,45.55,5.51,67.16,5.51,24.81,0,48.75-2.45,71.16-7.27,4.64-1,10.11-2.35,15.42-4.79l3.15-1.45-3.43.5c-16.98,2.46-35.08,4.86-53.32,4.86-1.88,0-3.76-.03-5.6-.07-15.72-.42-31.97-.86-48.84-3.47l-55.48-8.58c-19.13-2.96-40.34-4.52-61.34-4.52h0Z"/>
      </g>
      <g>
        <path class="cls-2" d="M392.09,67.1l-4.41-51.98-24.1,52.33-24.44-51.27-3.85,50.63c-1.75.35-3.1.37-4.79.05l5.2-59.16c.13-1.44-1.66-3.73-2.25-5.6l10.02-.21,23.47,48.88,22.04-48.73,8.56-.26c.07,7.11.68,13.23.94,20.11l4.27,45.13c-3.78.35-6.53.34-10.67.07Z"/>
        <path class="cls-32" d="M397.55,1.78c.07,7.11.68,13.23.94,20.11l4.27,45.13c-1.98.18-3.68.27-5.45.27-1.6,0-3.25-.07-5.22-.19l-4.41-51.98-24.1,52.33-24.44-51.27-3.85,50.64c-.92.19-1.73.28-2.53.28-.73,0-1.45-.08-2.26-.23l5.2-59.16c.13-1.44-1.66-3.73-2.25-5.6l10.02-.21,23.47,48.88,22.04-48.73,8.56-.26M398.05,1.27l-.51.02-8.56.26h-.31s-.13.29-.13.29l-21.6,47.75L343.93,1.67l-.14-.29h-.32s-10.02.22-10.02.22h-.67s.2.65.2.65c.25.79.69,1.63,1.11,2.44.58,1.1,1.18,2.25,1.11,2.97l-5.2,59.16-.04.45.44.08c.85.16,1.6.24,2.35.24.82,0,1.66-.09,2.63-.29l.37-.08.03-.38,3.71-48.76,23.64,49.58.46.96.45-.97,23.31-50.61,4.25,50.09.04.43.43.03c2.12.13,3.74.19,5.25.19,1.79,0,3.48-.08,5.49-.27l.5-.05-.05-.5-4.27-45.13c-.1-2.71-.26-5.37-.42-7.94-.23-3.86-.48-7.86-.52-12.13v-.51h0Z"/>
      </g>
      <g>
        <path class="cls-30" d="M286.13.5c-18.8,0-34.04,15.24-34.04,34.04s15.24,34.04,34.04,34.04,34.04-15.24,34.04-34.04S304.93.5,286.13.5ZM309.46,46.66c-1.33,7.64-6.36,13.84-12.68,16.31-7.82,3.04-15.95,1.91-22.42-3.64-12.69-10.88-16.68-35.93-6.6-47.66,7.77-9.02,21.56-9.42,30.49-1.64,9.85,8.59,13.36,24.3,11.21,36.63Z"/>
        <path class="cls-15" d="M286.13.5c18.8,0,34.04,15.24,34.04,34.04s-15.24,34.04-34.04,34.04-34.04-15.24-34.04-34.04S267.33.5,286.13.5M288.3,64.62c2.81,0,5.67-.55,8.48-1.65,6.32-2.46,11.35-8.67,12.68-16.31,2.15-12.33-1.36-28.05-11.21-36.63-4.2-3.65-9.46-5.5-14.68-5.5-5.88,0-11.7,2.36-15.82,7.14-10.08,11.73-6.09,36.79,6.6,47.66,4.14,3.55,8.96,5.29,13.94,5.29M286.13,0c-19.04,0-34.54,15.49-34.54,34.54s15.49,34.54,34.54,34.54,34.54-15.49,34.54-34.54S305.18,0,286.13,0h0ZM288.3,64.12c-4.96,0-9.67-1.79-13.61-5.17-6.6-5.66-11.2-15.68-11.99-26.15-.64-8.44,1.34-16.02,5.45-20.8,3.81-4.43,9.44-6.97,15.44-6.97,5.27,0,10.36,1.91,14.35,5.38,10.35,9.02,12.98,25.07,11.04,36.17-1.28,7.35-6.02,13.45-12.37,15.93-2.75,1.07-5.55,1.62-8.3,1.62h0Z"/>
      </g>
      <g>
        <path class="cls-21" d="M83.2,1.08l-8.63,1.75.85,4.6-24.71,58.33c-.08.81,2.35,1.8,3.05,1.49.71-.3,1.7-1.27,2.09-2.23l8.46-20.75,26.38.09,9.35,22.92,11.52-.23L83.2,1.08ZM65.66,40.64l11.79-27.34,11.41,26.98-23.2.36Z"/>
        <path class="cls-13" d="M83.2,1.08l28.35,65.98-11.52.23-9.35-22.92-26.38-.09-8.46,20.75c-.38.95-1.38,1.92-2.09,2.23-.09.04-.21.06-.35.06-.94,0-2.77-.85-2.7-1.55L75.42,7.43l-.85-4.6,8.63-1.75M65.66,40.64l23.2-.36-11.41-26.98-11.79,27.34M83.5.51l-.4.08-8.63,1.75-.48.1.09.48.82,4.45-24.65,58.19-.03.07v.07c-.03.2.01.52.33.87.62.69,2.05,1.23,2.86,1.23.22,0,.4-.03.55-.1.78-.33,1.9-1.38,2.35-2.5l8.33-20.44,25.71.09,9.22,22.61.13.32h.34s11.52-.24,11.52-.24h.74s-.29-.7-.29-.7L83.66.88l-.16-.37h0ZM66.42,40.13l11.02-25.55,10.66,25.22-21.68.33h0Z"/>
      </g>
      <g>
        <path class="cls-1" d="M161.21,55.92c-6.28,15.47-29.83,14.81-42.49,6.89.06-4.66.28-8.16.84-13.06,4.26,2.16,2.87,6.13,10.17,11.25,6.73,4.72,16.14,5.22,22.45-.48,3.02-2.72,2.92-7.38,1.84-11.03-1.02-3.44-3.77-6.01-7.46-7.77-6.4-3.05-12.87-5.74-18.96-9.34-6.14-3.62-8.53-10.63-7.24-17.22,1.28-6.57,6.25-11.69,13.26-13.28,8.33-1.9,17.05-.82,24.7,3.71.77,3.45.4,7.83-1.34,11.42-3.13-5.99-7.31-10.52-13.74-11.89-4.19-.89-9.4-.5-12.56,2.56-4.5,4.36-2.76,11.54,2.17,15.1,8.55,6.19,21.31,7.41,27.25,16.44,3.33,5.06,3.43,11,1.11,16.7Z"/>
        <path class="cls-10" d="M141.47.98c5.81,0,11.58,1.48,16.85,4.6.77,3.45.4,7.83-1.34,11.42-3.13-5.99-7.31-10.52-13.74-11.89-1.25-.27-2.59-.42-3.95-.42-3.17,0-6.4.83-8.61,2.98-4.5,4.36-2.76,11.54,2.17,15.1,8.55,6.19,21.31,7.41,27.25,16.44,3.33,5.06,3.43,11,1.11,16.7-3.57,8.79-12.72,12.38-22.27,12.38-7.26,0-14.75-2.07-20.22-5.49.06-4.66.28-8.16.84-13.06,4.26,2.16,2.87,6.13,10.17,11.25,3.37,2.36,7.41,3.67,11.39,3.67s7.91-1.3,11.06-4.15c3.02-2.72,2.92-7.38,1.84-11.03-1.02-3.44-3.77-6.01-7.46-7.77-6.4-3.05-12.87-5.74-18.96-9.34-6.14-3.62-8.53-10.63-7.24-17.22,1.28-6.57,6.25-11.69,13.26-13.28,2.59-.59,5.22-.89,7.85-.89M141.47.48c-2.64,0-5.32.3-7.96.91-7.08,1.61-12.3,6.85-13.64,13.67-1.42,7.26,1.52,14.23,7.48,17.75,4.46,2.63,9.2,4.81,13.78,6.92,1.71.79,3.48,1.6,5.22,2.43,3.8,1.82,6.29,4.4,7.2,7.46.49,1.66,1.82,7.34-1.7,10.52-2.91,2.63-6.62,4.02-10.72,4.02-3.88,0-7.82-1.27-11.11-3.58-3.89-2.73-5.27-5.15-6.37-7.09-.96-1.69-1.79-3.15-3.86-4.2l-.64-.33-.08.71c-.55,4.86-.78,8.41-.85,13.11v.28s.23.15.23.15c5.56,3.48,13.22,5.56,20.48,5.56,11.17,0,19.46-4.62,22.73-12.69,2.49-6.14,2.08-12.23-1.16-17.16-3.72-5.66-10.11-8.34-16.29-10.93-3.84-1.61-7.82-3.28-11.08-5.64-2.62-1.9-4.32-4.85-4.54-7.89-.12-1.75.19-4.29,2.42-6.45,1.89-1.83,4.82-2.84,8.26-2.84,1.28,0,2.57.14,3.84.41,5.62,1.2,9.88,4.89,13.4,11.63l.46.88.43-.89c1.69-3.48,2.22-7.98,1.38-11.74l-.05-.21-.19-.11c-5.16-3.06-11.07-4.67-17.1-4.67h0Z"/>
      </g>
      <g>
        <path class="cls-16" d="M446.31,1l-8.72,2.15c.62,2.18,1.13,4.23.38,5.99l-24.22,57.3c1.16.85,3.44.98,4.55.35l9.2-22.56,26.46.14,9.13,22.44c4.25.45,7.76.64,11.55-.05L446.31,1ZM428.83,40.66l11.67-27.89,11.46,27.5-23.13.39Z"/>
        <path class="cls-12" d="M446.31,1l28.34,65.77c-1.78.32-3.49.45-5.25.45-1.99,0-4.05-.17-6.31-.4l-9.13-22.44-26.46-.14-9.2,22.56c-.47.27-1.14.4-1.85.4-.98,0-2.03-.25-2.7-.74l24.22-57.3c.74-1.76.24-3.81-.38-5.99l8.72-2.15M428.83,40.66l23.13-.39-11.46-27.5-11.67,27.89M446.6.42l-.41.1-8.72,2.15-.5.12.14.5c.62,2.16,1.07,4.08.4,5.66l-24.22,57.3-.15.36.32.23c.72.53,1.84.84,3,.84.83,0,1.57-.16,2.1-.46l.15-.09.07-.16,9.07-22.24,25.79.13,9.01,22.13.11.28.3.03c1.91.2,4.16.41,6.36.41,1.89,0,3.63-.15,5.34-.46l.62-.11-.25-.58L446.77.81l-.17-.39h0ZM429.59,40.14l10.91-26.08,10.72,25.71-21.63.37h0Z"/>
      </g>
      <g>
        <path class="cls-22" d="M515.27,65.48c-10.78,5-22.89,2.84-33.13-2.8-.14-4.69.22-8.9,1.07-13.7l5.18,7.4c6.78,9.67,23.2,10.61,28.14,2.97,4.22-6.54.57-14.54-6.06-17.63l-18.08-8.44c-6.72-3.14-9.81-10.24-8.73-17.35,1.01-6.66,5.56-11.99,12.72-13.89,8.68-2.3,17.66-1,25.54,3.39.42,3.97.06,7.56-1.4,11.28-2.36-3.91-4.68-7.28-8.72-9.67-5.19-3.06-12.64-3.68-17.46.51-4.92,4.27-3.13,12.08,1.99,15.48,8.38,5.56,18.68,7.19,24.92,13.26,4.43,4.31,5.74,10.57,4.34,16.55-1.2,5.13-4.89,10.11-10.33,12.64Z"/>
        <path class="cls-14" d="M504.94.92c5.87,0,11.68,1.56,16.98,4.51.42,3.97.06,7.56-1.4,11.28-2.36-3.91-4.68-7.28-8.72-9.67-2.61-1.54-5.8-2.46-8.94-2.46s-6.13.89-8.52,2.97c-4.92,4.27-3.13,12.08,1.99,15.48,8.38,5.56,18.68,7.19,24.92,13.26,4.43,4.31,5.74,10.57,4.34,16.55-1.2,5.13-4.89,10.11-10.33,12.64-4.18,1.94-8.56,2.8-12.96,2.8-6.94,0-13.91-2.15-20.18-5.6-.14-4.69.22-8.9,1.07-13.7l5.18,7.4c3.77,5.38,10.53,8.06,16.63,8.06,4.87,0,9.31-1.7,11.51-5.09,4.22-6.54.57-14.54-6.06-17.63l-18.08-8.44c-6.72-3.14-9.81-10.24-8.73-17.35,1.01-6.66,5.56-11.99,12.72-13.89,2.84-.75,5.71-1.12,8.56-1.12M504.94.42c-2.92,0-5.84.38-8.69,1.14-7.12,1.89-12.02,7.24-13.08,14.3-1.17,7.75,2.37,14.77,9.02,17.88l18.08,8.44c3.47,1.62,6.14,4.67,7.14,8.16.87,3.01.41,6.12-1.29,8.75-1.97,3.05-6.11,4.86-11.09,4.86s-12.17-2.06-16.22-7.85l-5.18-7.39-.69-.99-.21,1.18c-.88,4.95-1.21,9.21-1.08,13.8v.29s.26.14.26.14c6.73,3.7,13.79,5.66,20.42,5.66,4.66,0,9.09-.96,13.17-2.85,5.24-2.43,9.3-7.4,10.6-12.98,1.51-6.46-.16-12.83-4.48-17.02-3.59-3.5-8.43-5.51-13.54-7.65-3.86-1.61-7.85-3.28-11.46-5.67-2.66-1.77-4.45-4.83-4.65-8-.17-2.65.79-5.02,2.71-6.68,2.15-1.86,4.98-2.85,8.2-2.85,2.98,0,6.07.85,8.68,2.39,4.05,2.39,6.35,5.85,8.55,9.5l.52.87.37-.94c1.42-3.62,1.87-7.28,1.43-11.52l-.03-.26-.23-.13c-5.38-2.99-11.34-4.57-17.23-4.57h0Z"/>
      </g>
      <g>
        <path class="cls-7" d="M44.78,60.79c.83,1.81.44,3.9-.35,6.43l-43.44-.16.14-33.86c.04-10.66-.09-20.77-.59-31.37l10.73.03.05,61.22c11.52-.2,21.69-.98,33.47-2.28Z"/>
        <path class="cls-20" d="M.52,1.83l10.73.03.05,61.22c11.52-.2,21.69-.98,33.47-2.28.83,1.81.44,3.9-.35,6.43l-43.44-.16.14-33.86c.04-10.66-.09-20.77-.59-31.37M0,1.33l.03.53c.46,9.6.64,19.26.59,31.35l-.14,33.86v.5s.5,0,.5,0l43.44.16h.37s.11-.35.11-.35c.84-2.67,1.22-4.85.33-6.79l-.15-.33-.36.04c-12.55,1.39-22.43,2.07-32.92,2.27l-.05-60.71v-.5s-.5,0-.5,0l-10.73-.03h-.53Z"/>
      </g>
      <g>
        <path class="cls-18" d="M247.33,60.65c.73,1.95.54,4.32-.16,6.63l-43.79-.29-.42-57.09V1.99l10.82.02.06,61.25c11.59-.07,21.76-1.03,33.49-2.61Z"/>
        <path class="cls-31" d="M202.96,1.99l10.82.02.06,61.25c11.59-.07,21.76-1.03,33.49-2.61.73,1.95.54,4.32-.16,6.63l-43.79-.29-.42-57.09V1.99M202.46,1.49v8.41l.42,57.09v.49s.5,0,.5,0l43.79.29h.37s.11-.36.11-.36c.81-2.66.86-5.07.15-6.95l-.14-.37-.39.05c-13.01,1.76-22.59,2.52-32.92,2.61l-.06-60.75v-.5s-.5,0-.5,0l-10.82-.02h-.5Z"/>
      </g>
      <g>
        <path class="cls-27" d="M204.43,146.64c2.79-.81,5.89-1.74,8.57-3.68,4.36-3.16,6.01-9.23,3.1-13.86-4.81-7.66-19.12-6.44-26.68-6.39.58,2.41,1.01,4.22,1.01,6.15l-.02,34.94c0,1.69-.95,3.06-2.13,4.19l11.03.02c-1.04-1.22-1.82-2.62-1.82-4.19l.02-16.8c3.56-.23,5.88,2.18,7.17,5.19l4.1,9.65c2.42,5.69,8.42,8.04,14.05,5.93-8.22-5.71-8.43-14.71-18.38-21.14ZM197.51,144.46l.06-19.35c3.79-.02,7.83.05,10.38,2.98,3.18,3.65,2.45,10.22-1.18,13.66-2.64,2.49-5.85,2.66-9.25,2.71Z"/>
        <path class="cls-25" d="M196.2,122.6c7.42,0,16.31.77,19.9,6.49,2.91,4.64,1.26,10.7-3.1,13.86-2.68,1.94-5.78,2.88-8.57,3.68,9.95,6.43,10.16,15.43,18.38,21.14-1.37.52-2.77.77-4.13.77-4.21,0-8.09-2.4-9.91-6.69l-4.1-9.65c-1.23-2.88-3.4-5.21-6.7-5.21-.15,0-.31,0-.46.02l-.02,16.8c0,1.57.78,2.97,1.82,4.19l-11.03-.02c1.17-1.13,2.13-2.5,2.13-4.19l.02-34.94c0-1.92-.43-3.74-1.01-6.15,1.92-.01,4.26-.1,6.78-.1M197.51,144.47c3.4-.06,6.62-.22,9.25-2.71,3.63-3.44,4.36-10.01,1.18-13.66-2.4-2.77-6.13-2.98-9.73-2.98-.22,0-.43,0-.65,0l-.05,19.35M196.2,122.1c-1.48,0-2.93.03-4.2.06-.92.02-1.79.04-2.58.04h-.63s.15.62.15.62c.56,2.32.99,4.15.99,6.03l-.02,34.94c0,1.3-.65,2.55-1.97,3.83l-.89.86h1.24s11.03.02,11.03.02h1.09s-.71-.83-.71-.83c-1.15-1.34-1.7-2.6-1.7-3.86l.02-16.32c3.41.02,5.26,2.68,6.21,4.91l4.1,9.65c1.84,4.32,5.81,7,10.37,7,1.45,0,2.9-.27,4.31-.8l.89-.34-.78-.54c-3.78-2.62-5.82-5.95-7.98-9.47-2.34-3.8-4.75-7.73-9.52-11.08,2.42-.72,5.23-1.67,7.7-3.46,4.76-3.45,6.18-9.83,3.23-14.53-3.74-5.96-12.83-6.72-20.32-6.72h0ZM198.06,125.61h.15c3.5,0,7.11.22,9.36,2.81,2.92,3.35,2.36,9.65-1.15,12.97-2.31,2.18-5.07,2.49-8.41,2.57l.05-18.34h0Z"/>
      </g>
      <g>
        <path class="cls-19" d="M327.77,167.86c0,1.64-2.21.42-2.98-.38l-37.22-38.82.51,34.45c.02,1.67.84,3.17,1.77,4.85l-6.74.03c.88-1.26,1.78-2.7,1.78-4.22l.14-35.82c0-1.79-1.35-3.74-2.56-5.13l8.92-.03,33.7,34.87-.4-30.05c-.02-1.87-.94-4.04-2.04-4.9l6.96.12c-.65.75-1.7,2.57-1.7,3.88l-.14,41.15Z"/>
        <path class="cls-5" d="M322.65,122.71l6.96.12c-.65.75-1.7,2.57-1.7,3.88l-.14,41.15c0,.59-.29.81-.7.81-.72,0-1.79-.68-2.29-1.2l-37.22-38.82.51,34.45c.02,1.67.84,3.17,1.77,4.85l-6.74.03c.88-1.26,1.78-2.7,1.78-4.23l.14-35.82c0-1.79-1.35-3.74-2.56-5.13l8.92-.03,33.7,34.87-.4-30.05c-.02-1.87-.94-4.04-2.04-4.9M321.16,122.18l1.19.92c.98.76,1.83,2.82,1.85,4.51l.38,28.79-32.82-33.97-.15-.15h-.21s-8.92.03-8.92.03h-1.09s.72.83.72.83c1.6,1.84,2.44,3.5,2.43,4.8l-.14,35.82c0,1.35-.82,2.69-1.69,3.94l-.56.79h.97s6.74-.03,6.74-.03h.84s-.41-.74-.41-.74c-.87-1.56-1.69-3.04-1.71-4.62l-.49-33.18,36.34,37.9c.52.54,1.72,1.35,2.65,1.35.58,0,1.2-.34,1.2-1.31l.14-41.15c0-1.11.94-2.81,1.58-3.55l.69-.81-1.06-.02-6.96-.12-1.5-.03h0Z"/>
      </g>
      <g>
        <path class="cls-3" d="M116.34,167.36c-7.38,3.11-15.64,1.75-22.11-2.35l-.97-9.14c3.98,7.17,10.1,11.59,17.79,10.1,3.7-.72,6.23-3.24,6.91-6.43.73-3.44-.6-7.18-3.99-8.95l-13.63-7.14c-4.21-2.21-6.44-6.21-6.09-10.52.35-4.27,2.83-8.19,7.21-9.84,6.42-2.42,13.71-1.71,19.6,1.73l.43,7.82c-3.78-6.85-10.34-9.74-17.25-7.25-1.75.63-3.42,2.46-3.79,3.83-3.5,13.05,25.54,9.14,23.9,27.95-.36,4.15-3.22,8.18-8.01,10.2Z"/>
        <path class="cls-11" d="M109.37,121.66c4.07,0,8.13,1.08,11.69,3.16l.43,7.82c-2.88-5.21-7.36-8.13-12.39-8.13-1.58,0-3.21.29-4.86.88-1.75.63-3.42,2.46-3.79,3.83-3.5,13.05,25.54,9.14,23.9,27.95-.36,4.15-3.22,8.18-8.01,10.2-2.77,1.17-5.66,1.7-8.54,1.7-4.79,0-9.53-1.49-13.57-4.06l-.97-9.14c3.46,6.24,8.54,10.39,14.85,10.39.95,0,1.93-.09,2.93-.29,3.7-.72,6.23-3.24,6.91-6.43.74-3.44-.6-7.18-3.99-8.95l-13.63-7.14c-4.21-2.21-6.44-6.21-6.09-10.52.35-4.27,2.83-8.19,7.21-9.84,2.55-.96,5.23-1.43,7.91-1.43M109.37,121.16c-2.79,0-5.52.49-8.09,1.46-4.32,1.63-7.14,5.47-7.53,10.27-.38,4.61,2,8.72,6.36,11l13.63,7.14c2.97,1.56,4.47,4.93,3.73,8.4-.66,3.08-3.16,5.39-6.52,6.04-.96.19-1.91.28-2.84.28-5.67,0-10.79-3.6-14.42-10.13l-1.2-2.15.26,2.45.97,9.14.03.24.2.13c4.26,2.71,9.05,4.14,13.84,4.14,3.05,0,5.99-.59,8.73-1.74,4.73-1.99,7.92-6.06,8.31-10.61.91-10.44-7.21-14.07-14.37-17.28-5.93-2.65-11.05-4.95-9.54-10.59.31-1.17,1.82-2.89,3.48-3.49,1.57-.57,3.15-.85,4.69-.85,4.83,0,9.19,2.87,11.95,7.88l1.06,1.91-.12-2.18-.43-7.82v-.27s-.25-.14-.25-.14c-3.61-2.11-7.74-3.23-11.94-3.23h0Z"/>
      </g>
      <g>
        <path class="cls-8" d="M422.7,167.74c-7.05,2.46-14.75,1.44-20.93-2.64-.88-2.53-1.25-5.98-1.07-9.01,3.67,6.97,10.27,11.6,18,9.75,3.25-.78,5.78-3.15,6.4-5.73,3.79-15.81-29.9-11.46-22.65-31,3.33-8.96,17.98-8.96,25.73-4.51.37,2.59.61,5.02.58,8.03-3.54-6.67-10.2-9.79-17.35-7.28-1.86.65-3.46,2.86-3.77,4.36-2.64,12.46,25.92,9.13,23.95,27.4-.49,4.55-3.65,8.78-8.88,10.6Z"/>
        <path class="cls-6" d="M416.32,121.7c4.28,0,8.66,1.08,11.86,2.92.37,2.59.61,5.02.58,8.03-2.71-5.12-7.27-8.14-12.46-8.14-1.58,0-3.22.28-4.89.86-1.86.65-3.46,2.86-3.77,4.36-2.64,12.46,25.92,9.13,23.95,27.4-.49,4.55-3.65,8.78-8.88,10.6-2.55.89-5.18,1.32-7.79,1.32-4.62,0-9.19-1.36-13.14-3.96-.88-2.53-1.25-5.98-1.07-9.01,3.12,5.93,8.36,10.16,14.61,10.16,1.1,0,2.23-.13,3.39-.41,3.25-.78,5.78-3.15,6.4-5.73,3.79-15.81-29.9-11.46-22.65-31,1.95-5.26,7.8-7.43,13.87-7.43M416.32,121.2c-7.17,0-12.53,2.9-14.34,7.75-4.03,10.85,4.32,14.74,11.69,18.18,6.49,3.03,12.62,5.89,10.95,12.87-.59,2.45-3.07,4.65-6.03,5.36-1.09.26-2.19.39-3.27.39-5.61,0-10.9-3.7-14.17-9.89l-.83-1.58-.11,1.79c-.19,3.2.23,6.72,1.09,9.2l.06.16.14.09c4.01,2.64,8.65,4.04,13.42,4.04,2.71,0,5.39-.45,7.96-1.35,5.14-1.79,8.67-6.02,9.21-11.02,1.11-10.27-7.01-13.92-14.18-17.14-5.85-2.63-10.91-4.9-9.78-10.21.3-1.42,1.84-3.43,3.45-3.99,1.58-.55,3.17-.84,4.72-.84,4.99,0,9.37,2.87,12.02,7.88l.93,1.75.02-1.98c.03-3.29-.27-5.84-.59-8.11l-.03-.24-.21-.12c-3.3-1.9-7.71-2.99-12.11-2.99h0Z"/>
      </g>
      <g>
        <path class="cls-24" d="M260.76,148.8c-.83-.86-2.66-2.36-3.96-2.41l-12.18-.5v19.55c8.46.87,16.6.06,24.4-3.97l-2.71,6.49h-30.65c.91-1.21,1.84-2.6,1.84-3.56v-37.7c.01-1.18-.91-2.83-1.7-3.84l28.21.11,1.89,6.37c-7.7-4.76-12.45-4.62-21.28-4.21l-.04,18.27c4.43-.16,13.77.99,16.26-3.09l-.08,8.48Z"/>
        <path class="cls-9" d="M235.79,122.86l28.21.11,1.89,6.37c-5.82-3.59-9.95-4.39-15.43-4.39-1.77,0-3.69.08-5.85.18l-.04,18.27c.34-.01.71-.02,1.1-.02,1.27,0,2.79.05,4.38.05,4.3,0,9.1-.37,10.78-3.12l-.08,8.48c-.83-.86-2.66-2.36-3.96-2.41l-12.18-.5v19.55c1.97.2,3.93.31,5.88.31,6.37,0,12.55-1.19,18.52-4.29l-2.71,6.49h-30.65c.91-1.21,1.84-2.6,1.84-3.56v-37.7c.01-1.18-.91-2.83-1.7-3.84M234.76,122.35l.64.81c.8,1.01,1.61,2.55,1.61,3.53v37.7c-.01.93-1.28,2.63-1.75,3.27l-.6.8h1s30.65,0,30.65,0h.33l.13-.31,2.71-6.49.53-1.27-1.22.63c-5.5,2.85-11.49,4.23-18.29,4.23-1.72,0-3.53-.09-5.39-.27v-18.58s11.68.48,11.68.48c1.1.04,2.8,1.41,3.62,2.26l.85.88v-1.22s.09-8.48.09-8.48l.02-1.81-.94,1.54c-1.56,2.55-6.35,2.88-10.35,2.88-.84,0-1.65-.01-2.42-.03-.7-.01-1.36-.02-1.96-.02-.21,0-.41,0-.6,0l.04-17.28c2.03-.09,3.75-.16,5.35-.16,5.18,0,9.32.71,15.17,4.32l1.12.69-.37-1.26-1.89-6.37-.11-.36h-.37s-28.21-.12-28.21-.12h-1.04Z"/>
      </g>
      <g>
        <path class="cls-23" d="M376.01,167.98l12.97.02c-2.21-1.99-3.75-3.99-5.03-6.71l-18.86-39.9-19.47,40.93c-1.2,2.54-2.32,4.27-4.69,5.66l9.25.03c-1.36-1.29-1.9-2.72-1.21-4.35l3.8-9.01,20.46.06,4.59,10.37c.36.82-1.04,2.26-1.81,2.9ZM354.01,151.79l8.7-19.61,9.11,19.64-17.8-.04Z"/>
        <path class="cls-17" d="M365.09,121.39l18.86,39.9c1.28,2.72,2.82,4.72,5.03,6.71l-12.97-.02c.78-.63,2.17-2.07,1.81-2.9l-4.59-10.37-20.46-.06-3.8,9.01c-.69,1.63-.15,3.06,1.21,4.35l-9.25-.03c2.37-1.39,3.49-3.12,4.69-5.66l19.47-40.93M371.81,151.82l-9.11-19.64-8.7,19.61,17.8.04M365.09,120.22l-.45.95-19.47,40.93c-1.19,2.52-2.26,4.14-4.49,5.45l-1.58.93h1.83s9.25.03,9.25.03h1.26s-.91-.86-.91-.86c-1.31-1.25-1.66-2.45-1.09-3.8l3.67-8.7,19.8.06,4.46,10.07c.16.36-.66,1.48-1.67,2.3l-1.09.89h1.41s12.97.02,12.97.02h1.31s-.97-.87-.97-.87c-2.22-2-3.69-3.96-4.91-6.55l-18.86-39.9-.45-.95h0ZM354.78,151.29l7.94-17.9,8.31,17.93-16.25-.03h0Z"/>
      </g>
      <g>
        <path class="cls-4" d="M166.44,148.67c-2.47-3.51-11.57-2.37-16.18-2.77v19.76c9.62.2,14.8.18,24.27-3.93l-2.67,6.21-31.04.03c1.16-1,2.26-2.15,2.26-3.7l-.07-38.83c0-1.04-1.62-2.57-2.05-2.64l28.73.18,1.99,6.56c-4.28-2.57-8.11-4.56-12.93-4.52l-8.47.06-.03,18.34,9.64-.21c2.02-.05,3.93-.93,6.37-1.77l.19,7.22Z"/>
        <path class="cls-28" d="M140.95,122.81l28.73.18,1.99,6.56c-4.24-2.54-8.04-4.52-12.8-4.52-.04,0-.09,0-.13,0l-8.47.06-.03,18.34,9.64-.21c2.02-.04,3.93-.93,6.37-1.77l.19,7.22c-2.47-3.51-11.57-2.37-16.18-2.77v19.76c1.71.04,3.29.06,4.77.06,6.83,0,11.72-.61,19.5-3.99l-2.67,6.21-31.04.03c1.16-1,2.26-2.15,2.26-3.7l-.07-38.83c0-1.04-1.62-2.57-2.05-2.64M140.96,122.31l-.07.99s-.02,0-.03,0c.34.12,1.65,1.4,1.66,2.15l.07,38.83c0,1.26-.83,2.24-2.09,3.32l-1.02.88h1.35s31.04-.03,31.04-.03h.33s.13-.3.13-.3l2.67-6.21.5-1.16-1.16.5c-7.69,3.34-12.54,3.95-19.3,3.95-1.38,0-2.85-.03-4.27-.05v-18.73c1.06.06,2.3.07,3.61.07,4.44.01,9.96.03,11.67,2.45l.95,1.35-.04-1.65-.19-7.22-.02-.68-.65.22c-.51.18-.99.35-1.46.52-1.74.64-3.24,1.18-4.76,1.22l-9.13.2.03-17.33,7.98-.06h.13c4.74,0,8.49,2.01,12.54,4.45l1.11.67-.38-1.24-1.99-6.56-.11-.35h-.37s-28.73-.18-28.73-.18h0Z"/>
      </g>
    </g>
  </g>
</svg>