<svg width="445" height="143" xmlns="http://www.w3.org/2000/svg" xmlns:xlink="http://www.w3.org/1999/xlink" xml:space="preserve" overflow="hidden"><g transform="translate(-417 -43)"><path d="M90.9993 142.666C86.8027 142.666 81.785 141.322 79.2732 139.169L78.2818 131.937 78.7501 131.761C81.8398 137.946 86.8574 140.276 91.1149 140.276 96.0717 140.276 99.575 137.648 99.575 132.929 99.575 129.14 97.0692 126.981 90.1235 123.891 82.4236 120.448 79.2732 117.705 79.2732 112.864 79.2732 105.864 84.8747 102.421 91.7535 102.421 96.1265 102.421 99.9216 103.474 102.02 105.28L102.604 111.581 102.081 111.757C99.7453 106.563 95.5487 104.872 91.4676 104.872 86.9791 104.872 84.3516 107.439 84.3516 110.529 84.3516 113.618 86.3344 115.601 93.2192 118.52 100.566 121.671 104.885 124.469 104.885 131.469 104.885 138.47 98.468 142.666 91.0054 142.666Z" fill="#1A6634" transform="matrix(1.0004 0 0 1 417 43.1669)"/><path d="M123.66 141.675C122.145 141.675 120.278 141.736 118.819 141.851L118.758 141.559C119.98 140.975 120.509 140.568 120.564 139.169 120.625 137.302 120.68 131.585 120.68 122.547 120.68 113.509 120.619 107.792 120.564 105.925 120.503 104.526 119.98 104.118 118.758 103.534L118.819 103.242C120.278 103.358 122.145 103.419 123.66 103.419L143.086 103.419C143.493 105.055 144.193 107.384 144.953 109.02L144.545 109.312C140.756 105.931 136.207 105.231 130.837 105.231 129.553 105.231 128.154 105.231 126.756 105.347 126.695 107.682 126.64 113.339 126.64 120.978 138.19 120.862 139.649 120.278 140.288 117.888L140.58 117.949C140.404 119.348 140.349 120.339 140.349 121.975 140.349 123.611 140.41 124.657 140.58 126.001L140.288 126.062C139.649 123.496 138.19 123.149 126.64 123.027 126.64 131.135 126.701 137.959 126.756 139.887L129.091 139.887C136.207 139.887 142.97 139.072 147.234 136.037L147.526 136.268C146.881 137.551 145.719 140.118 145.075 141.693L123.666 141.693Z" fill="#1A6634" transform="matrix(1.0004 0 0 1 417 43.1669)"/><path d="M188.871 141.261C187.819 142.021 185.836 142.198 184.498 142.198 177.905 142.198 175.868 136.542 173.94 131.116 172.717 127.619 171.027 124.523 168.46 123.94 167.815 123.94 167.238 123.94 166.654 123.879 166.654 131.579 166.714 137.296 166.769 139.163 166.83 140.562 167.408 141.03 168.576 141.553L168.515 141.845C167.116 141.73 165.133 141.669 163.613 141.669 162.092 141.669 160.286 141.73 158.832 141.845L158.771 141.553C159.994 140.969 160.523 140.562 160.578 139.163 160.639 137.296 160.693 131.579 160.693 122.541 160.693 113.503 160.632 107.786 160.578 105.919 160.517 104.52 159.878 103.875 158.771 103.705L158.771 103.413C161.338 103.297 165.072 103.236 167.809 103.236 178.544 103.236 183.677 107.609 183.677 112.858 183.677 119.159 178.428 122.541 172.127 123.593 175.333 124.815 178.544 128.957 180.934 132.923 184.9 139.455 186.591 141.438 188.81 140.915L188.871 141.261ZM166.648 121.665C167.171 121.726 167.578 121.726 167.992 121.726 174.408 121.726 177.151 117.937 177.151 112.858 177.151 108.132 174.7 105.274 166.769 105.274 166.708 107.609 166.654 114.956 166.654 121.665Z" fill="#1A6634" transform="matrix(1.0004 0 0 1 417 43.1669)"/><path d="M203.511 141.675C201.996 141.675 200.129 141.736 198.669 141.851L198.609 141.559C199.831 140.975 200.36 140.568 200.415 139.169 200.476 137.302 200.531 131.585 200.531 122.547 200.531 113.509 200.47 107.792 200.415 105.925 200.354 104.526 199.831 104.118 198.609 103.534L198.669 103.242C200.129 103.358 201.996 103.419 203.511 103.419L222.937 103.419C223.344 105.055 224.044 107.384 224.804 109.02L224.396 109.312C220.607 105.931 216.058 105.231 210.688 105.231 209.404 105.231 208.005 105.231 206.607 105.347 206.546 107.682 206.491 113.339 206.491 120.978 218.041 120.862 219.5 120.278 220.139 117.888L220.431 117.949C220.255 119.348 220.2 120.339 220.2 121.975 220.2 123.611 220.261 124.657 220.431 126.001L220.139 126.062C219.5 123.496 218.041 123.149 206.491 123.027 206.491 131.135 206.552 137.959 206.607 139.887L208.942 139.887C216.058 139.887 222.821 139.072 227.085 136.037L227.377 136.268C226.738 137.551 225.57 140.118 224.926 141.693L203.517 141.693Z" fill="#1A6634" transform="matrix(1.0004 0 0 1 417 43.1669)"/><path d="M278.989 103.528C277.821 104.051 277.237 104.52 277.182 105.919 276.951 109.708 276.83 113.442 276.83 122.541 276.83 131.639 276.89 138.579 277.006 142.374L275.315 142.374C264.057 130.356 253.444 119.275 242.77 108.43 243.001 112.28 243.062 116.653 243.062 122.547 243.062 131.007 243.293 135.38 243.53 139.169 243.591 140.568 244.23 141.036 245.337 141.559L245.276 141.851C244.169 141.736 243.001 141.675 242.071 141.675 241.195 141.675 240.088 141.736 238.689 141.851L238.628 141.559C239.851 140.975 240.38 140.568 240.435 139.169 240.666 135.38 240.787 131.585 240.787 122.547 240.787 113.509 240.727 109.245 240.672 107.67 240.611 105.572 239.62 104.228 238.105 103.528L238.166 103.236C240.149 103.352 241.663 103.413 242.6 103.413 243.768 103.413 244.935 103.413 246.097 103.352 257.063 115.194 267.214 125.752 274.737 133.275 274.622 130.009 274.561 125.399 274.561 122.541 274.561 114.081 274.33 109.708 274.093 105.919 274.032 104.52 273.393 104.051 272.286 103.528L272.347 103.236C273.454 103.352 274.622 103.413 275.552 103.413 276.428 103.413 277.535 103.352 278.934 103.236L278.995 103.528Z" fill="#1A6634" transform="matrix(1.0004 0 0 1 417 43.1669)"/><path d="M329.038 141.553 328.977 141.845C327.286 141.73 325.243 141.669 323.497 141.669 321.751 141.669 319.24 141.73 317.725 141.845L317.664 141.553C319.3 140.854 319.708 140.331 319.179 139.163 318.595 137.819 317.135 134.498 315.329 130.472L298.062 130.472C296.718 133.622 295.611 136.365 294.857 138.226 294.042 140.27 294.388 140.793 296.371 141.553L296.31 141.845C294.851 141.73 293.452 141.669 292.053 141.669 290.654 141.669 289.371 141.73 288.027 141.845L287.966 141.553C289.073 141.2 290.24 140.385 291.116 138.695 296.073 128.836 303.657 112.974 308.03 102.762L308.845 102.762C312.695 111.222 321.441 130.003 325.583 138.226 326.459 139.917 327.858 141.2 329.026 141.553ZM314.161 127.966C311.418 121.957 308.328 115.133 306.461 111.228 304.539 115.37 301.681 122.018 299.114 127.966L314.161 127.966Z" fill="#1A6634" transform="matrix(1.0004 0 0 1 417 43.1669)"/><path d="M350.97 142.666C346.773 142.666 341.755 141.322 339.243 139.169L338.252 131.937 338.72 131.761C341.81 137.946 346.828 140.276 351.085 140.276 356.042 140.276 359.545 137.648 359.545 132.929 359.545 129.14 357.039 126.981 350.094 123.891 342.394 120.448 339.243 117.705 339.243 112.864 339.243 105.864 344.845 102.421 351.724 102.421 356.097 102.421 359.892 103.474 361.99 105.28L362.574 111.581 362.051 111.757C359.715 106.563 355.519 104.872 351.438 104.872 346.949 104.872 344.322 107.439 344.322 110.529 344.322 113.618 346.305 115.601 353.189 118.52 360.537 121.671 364.855 124.469 364.855 131.469 364.855 138.47 358.438 142.666 350.97 142.666Z" fill="#1A6634" transform="matrix(1.0004 0 0 1 417 43.1669)"/><path d="M331.294 56.1979 327.633 12.012 307.197 56.6723 286.439 12.7601 283.264 56.1067C281.768 56.423 280.6 56.5629 279.183 56.0398L283.587 6.45303C283.763 4.45204 282.255 3.12008 281.561 1.04003L290.167 0.924468 310.044 42.489 328.703 1.04003C331.252 0.675105 333.423 0.796746 336.069 0.894058 335.618 5.80834 336.05 10.4307 336.519 15.4544L340.362 56.3196C337.401 56.4412 334.737 56.5385 331.294 56.204Z" fill="#1A6634" transform="matrix(1.0004 0 0 1 417 43.1669)"/><path d="M434.269 55.462C425.158 58.8375 415.597 57.1407 407.411 52.3602 407.605 48.3825 407.429 44.8002 408.42 40.707 411.096 44.2042 412.088 47.1661 414.977 49.5807 420.597 54.2882 428.905 55.7783 435.041 51.4235 437.924 49.38 438.423 45.6517 437.9 42.4343 437.407 39.3872 435.175 36.4496 431.952 34.9534L417.227 28.1172C411.808 25.5993 408.524 20.8066 408.591 15.0591 408.658 9.45755 411.717 4.0263 417.464 1.75162 425.189-1.30155 434.02-0.231117 441.221 3.94115 441.221 7.15855 441.811 10.2725 439.919 13.5508 435.875 5.06633 427.226 0.705515 419.125 4.62234 416.272 6.00296 415.378 9.09871 415.421 11.8356 415.585 23.1604 436.659 22.3271 442.772 32.8004 447.57 41.0233 443.599 51.9953 434.269 55.4559Z" fill="#1A6634" transform="matrix(1.0004 0 0 1 417 43.1669)"/><path d="M266.168 12.6993C261.29 4.95685 253.085 0.991371 244.06 0.261527 233.726-0.577793 223.873 3.71612 218.132 11.7505 214.519 16.8046 212.695 22.8867 212.841 28.9565 212.768 34.3756 214.154 39.7461 217.171 44.5326 222.049 52.275 230.253 56.2405 239.279 56.9704 249.613 57.8097 259.465 53.5158 265.207 45.4814 268.82 40.4272 270.644 34.3452 270.498 28.2814 270.571 22.8623 269.184 17.4919 266.168 12.7054ZM255.567 49.7692C252.55 52.421 249.235 53.2846 248.171 53.5523 241.116 55.316 233.367 52.7555 228.484 46.3815 226.592 43.9122 225.455 41.8808 224.53 39.7765 222.937 36.1516 220.577 29.139 221.66 19.2131 222.481 14.4327 224.512 10.309 227.76 7.46265 230.776 4.81697 234.085 3.95332 235.156 3.67963 242.211 1.91584 249.959 4.47637 254.837 10.8503 256.728 13.3196 257.866 15.351 258.79 17.4554 260.384 21.0925 262.725 28.0625 261.667 37.9032 260.858 42.7384 258.833 46.9046 255.561 49.7692Z" fill="#1A6634" transform="matrix(1.0004 0 0 1 417 43.1669)"/><path d="M209.088 50.6511C209.429 52.5001 209.386 54.349 208.717 56.5203 196.231 55.7783 184.133 56.0885 171.604 56.0581L171.665 7.76675 171.227 1.05219 180.472 0.954878 180.49 52.8711C190.197 52.9197 199.259 52.0987 209.088 50.6511Z" fill="#1A6634" transform="matrix(1.0004 0 0 1 417 43.1669)"/><path d="M377.134 0.0851484 369.69 2.02532C371.125 4.37906 370.505 6.22191 369.556 8.48443L349.522 55.9121C350.538 56.3926 352.679 56.648 353.554 55.9729L361.236 36.8024 383.648 36.9483 391.336 55.8999C394.748 56.3317 397.947 56.6967 401.225 56.052L377.134 0.0851484ZM362.398 33.7917 372.305 10.2361 382.006 33.4876 362.398 33.7917Z" fill="#1A6634" transform="matrix(1.0004 0 0 1 417 43.1669)"/><path d="M136.195 46.2538C131.11 59.9992 110.413 59.4214 99.9581 52.4028 100.214 48.4251 100.049 44.9766 100.846 41.0233 102.859 42.6898 103.334 44.5387 104.629 46.412 109.695 53.7469 119.846 56.7028 127.412 51.5817 130.338 49.5989 130.879 45.6213 130.241 42.3857 129.693 39.6244 127.729 36.7233 124.651 35.2575L109.574 28.0807C104.033 25.4411 100.791 20.3809 101.102 14.4874 101.412 8.59391 104.891 3.44851 110.802 1.43536 118.478-1.17991 127.06-0.0304101 133.902 4.28175 133.555 7.7485 134.273 10.826 132.363 14.013 128.72 5.20013 119.646 0.705515 111.508 4.70141 108.722 6.06986 107.865 9.17778 107.986 11.7748 108.497 22.8623 127.51 22.1325 134.553 31.8151 137.648 36.0664 138.086 41.1693 136.201 46.2599Z" fill="#1A6634" transform="matrix(1.0004 0 0 1 417 43.1669)"/><path d="M37.8181 50.791C37.9579 52.7859 37.9397 54.5071 37.2585 56.35L0.377086 56.125 0.529136 13.5203 0 0.936632 9.07439 0.936632C9.07439 0.936632 9.08047 52.7738 9.08047 52.7738 18.9151 52.7251 28.2145 51.8797 37.8181 50.7849Z" fill="#1A6634" transform="matrix(1.0004 0 0 1 417 43.1669)"/><path d="M69.9737 0.267609C67.3889 0.38925 65.2662 1.32588 62.6571 1.7273 62.6084 3.07142 63.0585 3.99589 63.4842 5.41909L42.191 55.8148C43.2067 56.2648 45.9558 56.648 46.3694 55.6323L53.9537 36.8997 76.2686 36.8571 84.1814 56.3439 93.9856 56.2831 69.9737 0.267609ZM55.1701 33.7309 65.1203 10.5037 74.7846 33.4694 55.1701 33.7309Z" fill="#1A6634" transform="matrix(1.0004 0 0 1 417 43.1669)"/><path d="M368.352 82.3811C352.472 88.2441 335.971 90.5188 318.99 92.3617 291.499 94.387 264.593 93.426 237.242 89.1564 215.851 85.8053 195.227 81.7607 173.587 80.9761L151.692 80.1855C135.927 79.6198 120.655 80.8119 105.377 82.971 95.354 84.3881 86.2553 86.8939 76.4754 89.3207 85.8053 85.0146 95.798 82.9954 105.554 80.4348 143.378 71.7193 190.611 71.0685 229.171 77.4121L255.184 81.6938C278.271 85.4951 301.073 87.6907 324.513 87.2771 339.596 86.9061 353.481 85.0937 368.358 82.3872Z" fill="#1A6634" transform="matrix(1.0004 0 0 1 417 43.1669)"/></g></svg>