<?xml version="1.0" encoding="UTF-8"?>
<svg id="Capa_1" xmlns="http://www.w3.org/2000/svg" version="1.1" xmlns:xlink="http://www.w3.org/1999/xlink" viewBox="0 0 192.87 108.67">
  <!-- Generator: Adobe Illustrator 29.8.5, SVG Export Plug-In . SVG Version: 2.1.1 Build 2)  -->
  <defs>
    <style>
      .st0 {
        fill: url(#Degradado_sin_nombre_1097);
      }

      .st1 {
        fill: url(#Degradado_sin_nombre_1129);
      }
    </style>
    <linearGradient id="Degradado_sin_nombre_1097" data-name="Degradado sin nombre 1097" x1="77.6" y1="129.52" x2="109.02" y2="7.54" gradientUnits="userSpaceOnUse">
      <stop offset="0" stop-color="#006837"/>
      <stop offset=".09" stop-color="#1eae6d"/>
      <stop offset=".1" stop-color="#22b573"/>
      <stop offset=".15" stop-color="#21b371"/>
      <stop offset=".16" stop-color="#1eac6c"/>
      <stop offset=".18" stop-color="#18a063"/>
      <stop offset=".19" stop-color="#118f55"/>
      <stop offset=".2" stop-color="#077944"/>
      <stop offset=".2" stop-color="#006837"/>
      <stop offset=".25" stop-color="#006938"/>
      <stop offset=".26" stop-color="#03703d"/>
      <stop offset=".28" stop-color="#097c46"/>
      <stop offset=".29" stop-color="#108d54"/>
      <stop offset=".29" stop-color="#1aa365"/>
      <stop offset=".3" stop-color="#22b573"/>
      <stop offset=".3" stop-color="#1aa365"/>
      <stop offset=".31" stop-color="#108d54"/>
      <stop offset=".33" stop-color="#097c46"/>
      <stop offset=".34" stop-color="#03703d"/>
      <stop offset=".36" stop-color="#006938"/>
      <stop offset=".42" stop-color="#006837"/>
      <stop offset=".48" stop-color="#006938"/>
      <stop offset=".51" stop-color="#03703d"/>
      <stop offset=".52" stop-color="#097c46"/>
      <stop offset=".54" stop-color="#108d54"/>
      <stop offset=".55" stop-color="#1aa365"/>
      <stop offset=".55" stop-color="#22b573"/>
      <stop offset=".58" stop-color="#15975c"/>
      <stop offset=".61" stop-color="#097d47"/>
      <stop offset=".64" stop-color="#026d3b"/>
      <stop offset=".66" stop-color="#006837"/>
      <stop offset=".72" stop-color="#006938"/>
      <stop offset=".75" stop-color="#03703d"/>
      <stop offset=".76" stop-color="#097c46"/>
      <stop offset=".78" stop-color="#108d54"/>
      <stop offset=".79" stop-color="#1aa365"/>
      <stop offset=".79" stop-color="#22b573"/>
      <stop offset=".83" stop-color="#1faf6f"/>
      <stop offset=".87" stop-color="#19a163"/>
      <stop offset=".91" stop-color="#0e8951"/>
      <stop offset=".95" stop-color="#006837"/>
    </linearGradient>
    <linearGradient id="Degradado_sin_nombre_1129" data-name="Degradado sin nombre 1129" x1="8.44" y1="54.33" x2="184.39" y2="54.33" gradientUnits="userSpaceOnUse">
      <stop offset="0" stop-color="#006837" stop-opacity=".5"/>
      <stop offset=".05" stop-color="#129157" stop-opacity=".77"/>
      <stop offset=".1" stop-color="#22b573"/>
      <stop offset=".14" stop-color="#21b372" stop-opacity=".99"/>
      <stop offset=".16" stop-color="#1faf6e" stop-opacity=".97"/>
      <stop offset=".17" stop-color="#1ca869" stop-opacity=".92"/>
      <stop offset=".18" stop-color="#189e61" stop-opacity=".86"/>
      <stop offset=".19" stop-color="#129157" stop-opacity=".77"/>
      <stop offset=".19" stop-color="#0b814a" stop-opacity=".66"/>
      <stop offset=".2" stop-color="#026e3c" stop-opacity=".54"/>
      <stop offset=".2" stop-color="#006837" stop-opacity=".5"/>
      <stop offset=".24" stop-color="#006937" stop-opacity=".51"/>
      <stop offset=".26" stop-color="#026d3b" stop-opacity=".53"/>
      <stop offset=".27" stop-color="#057440" stop-opacity=".58"/>
      <stop offset=".28" stop-color="#097e48" stop-opacity=".64"/>
      <stop offset=".28" stop-color="#0f8b52" stop-opacity=".73"/>
      <stop offset=".29" stop-color="#169b5f" stop-opacity=".84"/>
      <stop offset=".3" stop-color="#1fae6d" stop-opacity=".96"/>
      <stop offset=".3" stop-color="#22b573"/>
      <stop offset=".3" stop-color="#1aa365"/>
      <stop offset=".31" stop-color="#108d54"/>
      <stop offset=".33" stop-color="#097c46"/>
      <stop offset=".34" stop-color="#03703d"/>
      <stop offset=".36" stop-color="#006938"/>
      <stop offset=".42" stop-color="#006837"/>
      <stop offset=".48" stop-color="#006938"/>
      <stop offset=".51" stop-color="#03703d"/>
      <stop offset=".52" stop-color="#097c46"/>
      <stop offset=".54" stop-color="#108d54"/>
      <stop offset=".55" stop-color="#1aa365"/>
      <stop offset=".55" stop-color="#22b573"/>
      <stop offset=".58" stop-color="#15975c"/>
      <stop offset=".61" stop-color="#097d47"/>
      <stop offset=".64" stop-color="#026d3b"/>
      <stop offset=".66" stop-color="#006837"/>
      <stop offset=".72" stop-color="#006938"/>
      <stop offset=".75" stop-color="#03703d"/>
      <stop offset=".76" stop-color="#097c46"/>
      <stop offset=".78" stop-color="#108d54"/>
      <stop offset=".79" stop-color="#1aa365"/>
      <stop offset=".79" stop-color="#22b573"/>
      <stop offset=".82" stop-color="#20b270" stop-opacity=".98"/>
      <stop offset=".85" stop-color="#1ca969" stop-opacity=".92"/>
      <stop offset=".88" stop-color="#169a5e" stop-opacity=".83"/>
      <stop offset=".91" stop-color="#0d864f" stop-opacity=".7"/>
      <stop offset=".94" stop-color="#026d3b" stop-opacity=".53"/>
      <stop offset=".95" stop-color="#006837" stop-opacity=".5"/>
    </linearGradient>
  </defs>
  <path class="st0" d="M54.72,6.64c-.9.28-1.84.94-2.55,2.31-4.01,7.97-10.13,20.79-13.67,29.04h-.66c-3.11-6.83-10.18-22.01-13.53-28.66-.71-1.37-1.84-2.4-2.78-2.69l.05-.24c1.37.09,3.3.14,4.24.14s3.63-.05,4.86-.14l.05.24c-1.32.57-1.65.99-1.23,1.93,1.18,2.78,7.5,16.69,10.28,22.58,2.64-5.7,7.54-17.25,9.38-21.83.66-1.65.38-2.07-1.23-2.69l.05-.24c1.46.09,2.78.14,3.72.14s1.74-.05,2.97-.14l.05.24ZM69.8,37.61c-1.13-.09-2.73-.14-3.91-.14s-2.73.05-3.91.14l-.05-.24c.99-.47,1.41-.8,1.46-1.93.05-1.51.09-6.13.09-13.43s-.05-11.93-.09-13.43c-.05-1.13-.47-1.46-1.46-1.93l.05-.24c1.18.09,2.69.14,3.91.14s2.78-.05,3.91-.14l.05.24c-.94.42-1.41.8-1.46,1.93-.05,1.51-.09,6.08-.09,13.43s.05,11.93.09,13.43c.05,1.13.52,1.51,1.46,1.93l-.05.24ZM91.34,38.27c-3.39,0-7.45-1.08-9.47-2.83l-.8-5.85.38-.14c2.5,5,6.55,6.88,9.99,6.88,4.01,0,6.84-2.12,6.84-5.94,0-3.06-2.03-4.81-7.64-7.31-6.22-2.78-8.77-5-8.77-8.91,0-5.66,4.53-8.44,10.09-8.44,3.54,0,6.6.85,8.3,2.31l.47,5.09-.42.14c-1.89-4.2-5.28-5.56-8.58-5.56-3.63,0-5.75,2.07-5.75,4.57s1.6,4.1,7.16,6.46c5.94,2.55,9.43,4.81,9.43,10.46s-5.19,9.05-11.22,9.05ZM137.07,11.3c-3.06-2.31-7.07-3.21-10.7-3.21h-.52v13.91c0,7.31.05,11.93.09,13.43.05,1.13.52,1.51,1.46,1.93l-.05.24c-1.13-.09-2.73-.14-3.91-.14s-2.73.05-3.91.14l-.05-.24c.99-.47,1.41-.8,1.46-1.93.05-1.51.09-6.13.09-13.43v-13.91h-.47c-3.63,0-7.73.94-10.79,3.25l-.24-.24c.52-1.18,1.27-3.44,1.51-4.57h24.79c.24,1.13.94,3.35,1.46,4.53l-.24.24ZM168.56,34.68c-3.35-6.64-10.42-21.82-13.53-28.66h-.66c-3.53,8.25-9.66,21.07-13.67,29.03-.7,1.37-1.65,2.03-2.54,2.31l.05.24c1.09-.1,2.08-.14,3.25-.14s2.26.05,3.44.14l.05-.24c-1.6-.61-1.89-1.04-1.22-2.69.61-1.5,1.51-3.72,2.59-6.27h13.96c1.46,3.25,2.64,5.94,3.11,7.02.42.94.09,1.37-1.23,1.93l.05.24c1.22-.1,3.25-.14,4.67-.14s3.06.05,4.43.14l.05-.24c-.94-.28-2.08-1.32-2.78-2.69ZM147.16,26.38c2.07-4.81,4.38-10.18,5.94-13.53,1.51,3.16,4.01,8.67,6.23,13.53h-12.16ZM42.64,98.42c-.45.9-1.27,2.7-1.72,3.81h-12.03c-2.5,0-3.81.04-4.83.12l-.04-.2c.86-.41,1.23-.65,1.27-1.68.04-1.31.08-5.32.08-11.67s-.04-10.36-.08-11.67c-.04-.98-.41-1.27-1.27-1.68l.04-.2c1.02.08,2.33.12,3.44.12.98,0,2.37-.04,3.36-.12l.04.2c-.82.37-1.23.7-1.27,1.68-.04,1.31-.08,5.28-.08,11.67s.04,9.5.08,12.16h1.76c4.95,0,8.06-.57,11.05-2.7l.2.16ZM63.44,74.68c-7.98,0-14.98,5.53-14.98,14.12s7,14.12,14.98,14.12,14.98-5.57,14.98-14.12-7-14.12-14.98-14.12ZM63.44,101.25c-6.55,0-10.39-4.71-10.39-12.44s3.85-12.44,10.39-12.44,10.4,4.67,10.4,12.44-3.85,12.44-10.4,12.44ZM115.64,102.15l-.04.25c-.98-.12-2.37-.16-3.4-.16s-2.37.04-3.4.12l-.04-.2c.86-.41,1.23-.65,1.27-1.68.04-1.31.08-5.28.08-11.67,0-5.16.04-8.47.08-10.4-3.72,8.51-6.26,14.49-9.99,23.41h-1.27c-2.37-5.32-8.31-17.97-10.97-23.49.08,2.42.16,5.2.16,10.48,0,5.94.16,9.01.33,11.67.04.98.49,1.31,1.27,1.68l-.04.2c-.78-.08-1.6-.12-2.25-.12-.61,0-1.39.04-2.37.12l-.04-.2c.86-.41,1.23-.7,1.27-1.68.16-2.66.25-5.32.25-11.67s-.04-10.36-.08-11.67c-.04-.98-.41-1.27-1.27-1.68l.04-.2c1.02.08,2.33.12,3.19.12.98,0,2.42-.04,2.82-.08,2.95,6.92,6.26,14.12,9.54,20.71,2.7-6.02,7.16-16.33,8.92-20.71.74.04,1.8.08,2.91.08.98,0,2.01-.04,2.99-.12l.04.2c-.82.37-1.23.7-1.27,1.68-.04,1.31-.08,5.28-.08,11.67s.04,10.36.08,11.67c.04.98.45,1.31,1.27,1.68ZM146.82,99.82c-2.91-5.77-9.05-18.95-11.75-24.89h-.58c-3.07,7.16-8.39,18.3-11.87,25.22-.62,1.19-1.44,1.76-2.21,2.01l.04.2c.94-.08,1.8-.12,2.83-.12s1.96.04,2.99.12l.04-.2c-1.39-.53-1.64-.9-1.06-2.33.53-1.31,1.31-3.23,2.25-5.44h12.12c1.27,2.82,2.29,5.15,2.7,6.1.37.82.08,1.19-1.06,1.68l.04.2c1.06-.08,2.83-.12,4.05-.12s2.66.04,3.85.12l.04-.2c-.82-.25-1.8-1.15-2.42-2.33ZM128.23,92.61c1.8-4.17,3.81-8.84,5.16-11.75,1.31,2.74,3.48,7.53,5.4,11.75h-10.56ZM163.67,102.93c-2.95,0-6.47-.94-8.23-2.46l-.7-5.08.33-.12c2.17,4.34,5.69,5.98,8.68,5.98,3.48,0,5.94-1.84,5.94-5.16,0-2.66-1.76-4.17-6.63-6.34-5.4-2.41-7.61-4.34-7.61-7.74,0-4.91,3.93-7.33,8.76-7.33,3.07,0,5.73.74,7.2,2.01l.41,4.42-.37.12c-1.64-3.64-4.58-4.83-7.45-4.83-3.15,0-4.99,1.8-4.99,3.97s1.39,3.56,6.22,5.61c5.16,2.21,8.19,4.18,8.19,9.09s-4.5,7.86-9.74,7.86ZM157.85,59.15c-14.1.25-27.82-1.07-41.7-3.36l-15.65-2.58c-23.2-3.82-51.61-3.43-74.36,1.82-5.87,1.54-11.88,2.75-17.49,5.34,5.89-1.46,11.36-2.97,17.39-3.82,9.19-1.3,18.38-2.01,27.86-1.67l13.17.48c13.02.47,25.42,2.9,38.29,4.92,16.45,2.57,32.64,3.15,49.17,1.93,10.21-1.11,20.14-2.47,29.69-6-8.95,1.63-17.3,2.72-26.37,2.94Z"/>
  <path class="st1" d="M91.96,5.74c3.54,0,6.6.85,8.3,2.31l.47,5.09-.42.14c-1.89-4.2-5.28-5.56-8.58-5.56-3.63,0-5.75,2.07-5.75,4.57s1.6,4.1,7.16,6.46c5.94,2.55,9.43,4.81,9.43,10.46s-5.19,9.05-11.22,9.05c-3.39,0-7.45-1.08-9.47-2.83l-.8-5.85.38-.14c2.5,5,6.55,6.88,9.99,6.88,4.01,0,6.84-2.12,6.84-5.94,0-3.06-2.03-4.81-7.64-7.31-6.22-2.78-8.77-5-8.77-8.91,0-5.66,4.53-8.44,10.09-8.44M155.03,6.02c3.11,6.83,10.18,22.01,13.53,28.66.7,1.37,1.84,2.41,2.78,2.69l-.05.24c-1.37-.1-3.02-.14-4.43-.14s-3.44.05-4.67.14l-.05-.24c1.32-.57,1.65-.99,1.23-1.93-.47-1.08-1.65-3.77-3.11-7.02h-13.96c-1.08,2.54-1.98,4.76-2.59,6.27-.66,1.65-.38,2.08,1.22,2.69l-.05.24c-1.18-.1-2.31-.14-3.44-.14s-2.17.05-3.25.14l-.05-.24c.9-.28,1.84-.94,2.54-2.31,4.01-7.96,10.14-20.78,13.67-29.03h.66M147.16,26.38h12.16c-2.22-4.85-4.72-10.37-6.23-13.53-1.56,3.35-3.87,8.72-5.94,13.53M69.8,6.4l.05.24c-.94.42-1.41.8-1.46,1.93-.05,1.51-.09,6.08-.09,13.43s.05,11.93.09,13.43c.05,1.13.52,1.51,1.46,1.93l-.05.24c-1.13-.09-2.73-.14-3.91-.14s-2.73.05-3.91.14l-.05-.24c.99-.47,1.41-.8,1.46-1.93.05-1.51.09-6.13.09-13.43s-.05-11.93-.09-13.43c-.05-1.13-.47-1.46-1.46-1.93l.05-.24c1.18.09,2.69.14,3.91.14s2.78-.05,3.91-.14M54.67,6.4l.05.24c-.9.28-1.84.94-2.55,2.31-4.01,7.97-10.13,20.79-13.67,29.04h-.66c-3.11-6.83-10.18-22.01-13.53-28.66-.71-1.37-1.84-2.4-2.78-2.69l.05-.24c1.37.09,3.3.14,4.24.14s3.63-.05,4.86-.14l.05.24c-1.32.57-1.65.99-1.23,1.93,1.18,2.78,7.5,16.69,10.28,22.58,2.64-5.7,7.54-17.25,9.38-21.83.66-1.65.38-2.07-1.23-2.69l.05-.24c1.46.09,2.78.14,3.72.14s1.74-.05,2.97-.14M135.84,6.54c.24,1.13.94,3.35,1.46,4.53l-.24.24c-3.06-2.31-7.07-3.21-10.7-3.21h-.52v13.91c0,7.31.05,11.93.09,13.43.05,1.13.52,1.51,1.46,1.93l-.05.24c-1.13-.09-2.73-.14-3.91-.14s-2.73.05-3.91.14l-.05-.24c.99-.47,1.41-.8,1.46-1.93.05-1.51.09-6.13.09-13.43v-13.91h-.47c-3.63,0-7.73.94-10.79,3.25l-.24-.24c.52-1.18,1.27-3.44,1.51-4.57h24.79M67.87,50.68c11.27,0,22.45.86,32.63,2.54l15.65,2.58c12.76,2.1,25.38,3.39,38.28,3.39,1.14,0,2.28-.01,3.42-.03,9.07-.22,17.43-1.31,26.37-2.94-9.55,3.53-19.48,4.9-29.69,6-5.51.41-10.98.61-16.44.61-10.92,0-21.77-.83-32.74-2.54-12.87-2.01-25.27-4.45-38.29-4.92l-13.17-.48c-1.59-.06-3.17-.08-4.74-.08-7.82,0-15.47.68-23.12,1.76-6.03.85-11.5,2.36-17.39,3.82,5.61-2.59,11.62-3.81,17.49-5.34,12.77-2.94,27.32-4.36,41.73-4.36M164.2,74.68c3.07,0,5.73.74,7.2,2.01l.41,4.42-.37.12c-1.64-3.64-4.58-4.83-7.45-4.83-3.15,0-4.99,1.8-4.99,3.97s1.39,3.56,6.22,5.61c5.16,2.21,8.19,4.18,8.19,9.09s-4.5,7.86-9.74,7.86c-2.95,0-6.47-.94-8.23-2.46l-.7-5.08.33-.12c2.17,4.34,5.69,5.98,8.68,5.98,3.48,0,5.94-1.84,5.94-5.16,0-2.66-1.76-4.17-6.63-6.34-5.4-2.41-7.61-4.34-7.61-7.74,0-4.91,3.93-7.33,8.76-7.33M63.44,74.68c7.98,0,14.98,5.53,14.98,14.12s-7,14.12-14.98,14.12-14.98-5.57-14.98-14.12,7-14.12,14.98-14.12M63.44,101.25c6.55,0,10.4-4.71,10.4-12.44s-3.85-12.44-10.4-12.44-10.39,4.67-10.39,12.44,3.85,12.44,10.39,12.44M135.07,74.93c2.7,5.94,8.84,19.11,11.75,24.89.61,1.19,1.6,2.08,2.42,2.33l-.04.2c-1.19-.08-2.62-.12-3.85-.12s-2.99.04-4.05.12l-.04-.2c1.15-.49,1.44-.86,1.06-1.68-.41-.94-1.43-3.28-2.7-6.1h-12.12c-.94,2.21-1.72,4.13-2.25,5.44-.58,1.43-.33,1.8,1.06,2.33l-.04.2c-1.02-.08-2.01-.12-2.99-.12s-1.88.04-2.83.12l-.04-.2c.78-.25,1.6-.82,2.21-2.01,3.48-6.92,8.8-18.05,11.87-25.22h.58M128.23,92.61h10.56c-1.92-4.21-4.09-9-5.4-11.75-1.35,2.91-3.35,7.57-5.16,11.75M115.6,75.26l.04.2c-.82.37-1.23.7-1.27,1.68-.04,1.31-.08,5.28-.08,11.67s.04,10.36.08,11.67c.04.98.45,1.31,1.27,1.68l-.04.25c-.98-.12-2.37-.16-3.4-.16s-2.37.04-3.4.12l-.04-.2c.86-.41,1.23-.65,1.27-1.68.04-1.31.08-5.28.08-11.67,0-5.16.04-8.47.08-10.4-3.72,8.51-6.26,14.49-9.99,23.41h-1.27c-2.37-5.32-8.31-17.97-10.97-23.49.08,2.41.16,5.2.16,10.48,0,5.94.16,9.01.33,11.67.04.98.49,1.31,1.27,1.68l-.04.2c-.78-.08-1.6-.12-2.25-.12-.61,0-1.39.04-2.37.12l-.04-.2c.86-.41,1.23-.7,1.27-1.68.16-2.66.25-5.32.25-11.67s-.04-10.36-.08-11.67c-.04-.98-.41-1.27-1.27-1.68l.04-.2c1.02.08,2.33.12,3.19.12.98,0,2.42-.04,2.82-.08,2.95,6.92,6.26,14.12,9.54,20.71,2.7-6.02,7.16-16.33,8.92-20.71.74.04,1.8.08,2.91.08.98,0,2.01-.04,2.99-.12M30.85,75.26l.04.2c-.82.37-1.23.7-1.27,1.68-.04,1.31-.08,5.28-.08,11.67s.04,9.5.08,12.16h1.76c4.95,0,8.06-.57,11.05-2.7l.2.16c-.45.9-1.27,2.7-1.72,3.81h-12.03c-2.5,0-3.81.04-4.83.12l-.04-.2c.86-.41,1.23-.65,1.27-1.68.04-1.31.08-5.32.08-11.67s-.04-10.36-.08-11.67c-.04-.98-.41-1.27-1.27-1.68l.04-.2c1.02.08,2.33.12,3.44.12.98,0,2.37-.04,3.36-.12M91.96,5.24c-6.43,0-10.59,3.51-10.59,8.94,0,4.47,3.19,6.74,9.06,9.37,5.63,2.51,7.34,4.11,7.34,6.85,0,3.36-2.43,5.44-6.34,5.44s-7.48-2.47-9.55-6.61l-.2-.4-.42.16-.38.14-.37.14.05.4.8,5.85.03.19.14.12c2.02,1.74,6.05,2.95,9.8,2.95,5.83,0,11.72-2.95,11.72-9.55,0-6.26-4.22-8.56-9.73-10.92-5.84-2.47-6.86-3.9-6.86-6,0-2.4,2.16-4.07,5.25-4.07,2.63,0,6.17.91,8.12,5.27l.19.41.43-.14.42-.14.38-.13-.04-.39-.47-5.09-.02-.2-.15-.13c-1.79-1.54-4.94-2.43-8.62-2.43h0ZM155.35,5.52h-1.31l-.13.3c-3.49,8.14-9.64,21.02-13.66,29.01-.55,1.07-1.31,1.76-2.25,2.06l-.43.13.08.44.05.24.09.44.45-.04c1.09-.1,2.08-.14,3.21-.14s2.24.05,3.4.14l.45.04.08-.44.05-.24.08-.41-.39-.15c-.75-.29-1.1-.5-1.2-.72-.1-.22-.02-.63.26-1.31l.16-.4c.58-1.43,1.37-3.36,2.3-5.56h13.3c1.4,3.12,2.52,5.67,2.98,6.72.18.4.13.53.11.57-.11.29-.84.6-1.08.7l-.38.16.09.4.05.24.09.43.44-.03c1.23-.1,3.26-.14,4.63-.14,1.52,0,3.13.05,4.4.14l.44.03.08-.44.05-.24.09-.44-.43-.13c-.85-.25-1.87-1.26-2.48-2.44-3.46-6.87-10.63-22.29-13.52-28.64l-.13-.29h0ZM147.92,25.88c1.77-4.12,3.73-8.66,5.18-11.85,1.21,2.56,2.86,6.19,4.47,9.72l.97,2.12h-10.62ZM70.2,5.86l-.44.04c-1.16.1-2.78.14-3.87.14-1.31,0-2.8-.05-3.87-.14l-.44-.04-.09.44-.05.24-.08.38.35.17c.91.43,1.14.64,1.18,1.5.04,1.39.09,5.74.09,13.41s-.05,12.03-.09,13.42c-.04.86-.27,1.06-1.18,1.5l-.35.17.08.38.05.24.09.44.44-.04c1.08-.09,2.56-.14,3.87-.14,1.09,0,2.71.04,3.87.14l.44.04.09-.44.05-.24.08-.39-.36-.16c-.86-.39-1.13-.64-1.17-1.5-.04-1.39-.09-5.74-.09-13.41s.05-12.03.09-13.42c.04-.85.31-1.11,1.17-1.49l.36-.16-.08-.39-.05-.24-.09-.44h0ZM31.08,5.87l-.44.03c-1.18.09-3.8.14-4.82.14-.88,0-2.82-.04-4.21-.14l-.44-.03-.09.43-.05.24-.09.45.44.13c.85.26,1.87,1.26,2.48,2.44,3.35,6.65,10.47,21.94,13.52,28.64l.13.29h1.31l.13-.3c3.49-8.15,9.64-21.03,13.66-29.01.55-1.07,1.31-1.76,2.25-2.06l.43-.14-.09-.44-.05-.24-.09-.43-.44.03c-1.21.09-1.99.14-2.93.14s-2.29-.05-3.69-.14l-.44-.03-.09.43-.05.24-.08.41.39.15c.75.29,1.1.5,1.2.72.1.22.02.63-.26,1.31-1.77,4.4-6.22,14.89-8.92,20.82-2.97-6.33-8.72-19.01-9.81-21.59-.18-.41-.13-.54-.12-.58.11-.29.84-.6,1.08-.7l.37-.16-.08-.4-.05-.24-.09-.43h0ZM136.25,6.04h-25.61l-.08.4c-.22,1.07-.95,3.29-1.48,4.47l-.14.31.24.24.24.24.31.31.35-.26c2.65-2,6.46-3.15,10.47-3.15v13.41c0,7.69-.05,12.03-.09,13.42-.04.86-.27,1.07-1.18,1.5l-.35.17.08.38.05.24.09.44.44-.04c1.08-.09,2.56-.14,3.87-.14,1.09,0,2.71.04,3.87.14l.44.04.09-.44.05-.24.08-.39-.36-.16c-.86-.39-1.13-.64-1.17-1.5-.04-1.38-.09-5.73-.09-13.41v-13.41h.02c4.05,0,7.74,1.1,10.4,3.1l.35.26.31-.31.24-.24.24-.24-.14-.31c-.49-1.11-1.19-3.3-1.43-4.43l-.08-.4h0ZM67.87,50.18c-14.97,0-29.44,1.51-41.84,4.37-1.17.31-2.32.6-3.48.89-4.7,1.18-9.56,2.39-14.11,4.49l.33.94c.94-.23,1.86-.47,2.78-.7,4.89-1.23,9.51-2.4,14.55-3.11,8.35-1.18,15.89-1.75,23.05-1.75,1.58,0,3.17.03,4.72.08l13.17.48c10.47.38,20.35,2,30.82,3.72,2.46.4,4.93.81,7.41,1.2,10.97,1.71,21.71,2.55,32.82,2.55,5.4,0,10.94-.21,16.47-.61,9.67-1.05,19.92-2.37,29.83-6.03l-.26-.96c-10.05,1.83-18.16,2.73-26.3,2.94-1.14.02-2.28.03-3.41.03-11.88,0-24.38-1.11-38.2-3.38l-15.65-2.58c-10.12-1.67-21.43-2.55-32.71-2.55h0ZM164.2,74.18c-5.62,0-9.26,3.07-9.26,7.83,0,3.92,2.78,5.9,7.91,8.19,4.85,2.16,6.33,3.54,6.33,5.89,0,2.87-2.08,4.66-5.44,4.66s-6.45-2.13-8.23-5.7l-.2-.4-.42.16-.33.12-.37.14.05.4.7,5.08.03.19.14.12c1.76,1.52,5.28,2.58,8.55,2.58,5.1,0,10.24-2.58,10.24-8.36,0-5.47-3.68-7.48-8.49-9.55-5.03-2.13-5.92-3.36-5.92-5.15,0-2.04,1.85-3.47,4.49-3.47,2.26,0,5.31.79,6.99,4.53l.19.41.43-.14.37-.12.38-.13-.04-.39-.41-4.42-.02-.2-.15-.13c-1.57-1.35-4.31-2.13-7.53-2.13h0ZM63.44,74.18c-8.82,0-15.48,6.29-15.48,14.62s6.65,14.62,15.48,14.62,15.48-6.29,15.48-14.62-6.66-14.62-15.48-14.62h0ZM63.44,100.75c-6.2,0-9.89-4.46-9.89-11.94s3.7-11.94,9.89-11.94,9.9,4.46,9.9,11.94-3.7,11.94-9.9,11.94h0ZM135.39,74.43h-1.23l-.13.3c-3.04,7.1-8.38,18.27-11.85,25.19-.47.91-1.12,1.5-1.92,1.75l-.43.14.09.44.04.2.09.43.44-.04c1-.08,1.83-.12,2.78-.12s1.91.04,2.95.12l.44.03.09-.43.04-.2.08-.41-.4-.15c-.44-.17-.91-.37-1-.59-.08-.17,0-.52.22-1.09l.17-.41c.49-1.22,1.16-2.86,1.95-4.72h11.46c1.38,3.07,2.38,5.36,2.57,5.8.07.15.14.35.1.45-.06.15-.36.34-.9.57l-.37.16.08.4.04.2.09.43.44-.03c1.05-.08,2.82-.12,4.02-.12,1.26,0,2.69.04,3.81.12l.44.03.09-.43.04-.2.09-.45-.44-.13c-.6-.18-1.51-.91-2.12-2.08-2.91-5.78-9.09-19.06-11.74-24.87l-.13-.29h0ZM128.99,92.11l.2-.47c1.49-3.45,3.02-7,4.2-9.6,1.04,2.22,2.46,5.32,3.83,8.33l.79,1.73h-9.02ZM116,74.72l-.44.04c-.95.08-1.97.12-2.95.12-1.23,0-2.33-.05-2.88-.08l-.36-.02-.13.33c-1.71,4.25-5.81,13.73-8.48,19.72-3.11-6.31-6.23-13.11-9.05-19.73l-.14-.34-.37.04c-.39.04-1.81.08-2.77.08-.81,0-2.11-.04-3.15-.12l-.44-.04-.09.44-.04.2-.08.38.35.17c.77.37.95.53.98,1.25.04,1.2.08,4.97.08,11.64s-.09,9.06-.24,11.63c-.03.73-.21.89-.98,1.26l-.35.17.08.38.04.2.09.44.44-.04c.98-.08,1.74-.12,2.33-.12.67,0,1.47.04,2.2.12l.45.05.09-.45.04-.2.08-.38-.35-.17c-.74-.35-.95-.55-.98-1.25-.17-2.81-.33-5.8-.33-11.64,0-3.65-.04-6.13-.09-8.13,2.92,6.12,7.83,16.61,9.94,21.35l.13.3h1.93l.13-.31c3.15-7.54,5.6-13.35,8.99-21.12-.02,1.86-.04,4.44-.04,7.91,0,6.67-.04,10.45-.08,11.65-.03.76-.21.88-.98,1.24l-.35.17.08.38.04.2.09.44.44-.04c.93-.07,2.22-.12,3.36-.12.48,0,2.15.01,3.34.16l.48.06.08-.47.04-.25.06-.38-.35-.16c-.73-.33-.94-.53-.97-1.24-.04-1.2-.08-4.98-.08-11.64s.04-10.44.08-11.65c.03-.71.25-.91.97-1.24l.36-.16-.08-.39-.04-.2-.09-.44h0ZM31.25,74.72l-.44.04c-1,.08-2.39.12-3.31.12-1.18,0-2.45-.05-3.4-.12l-.44-.04-.09.44-.04.2-.08.38.35.17c.77.37.95.53.98,1.25.04,1.2.08,4.98.08,11.64s-.04,10.44-.08,11.65c-.03.76-.21.88-.98,1.24l-.35.17.08.38.04.2.09.44.44-.04c1.08-.09,2.46-.12,4.79-.12h12.37l.13-.31c.46-1.13,1.28-2.92,1.7-3.77l.18-.36-.32-.25-.2-.16-.29-.24-.31.22c-2.7,1.93-5.52,2.61-10.76,2.61h-1.27c-.04-2.59-.07-5.74-.07-11.66,0-6.67.04-10.44.08-11.65.03-.71.25-.91.97-1.24l.36-.16-.08-.39-.04-.2-.09-.44h0Z"/>
</svg>