<?xml version="1.0" encoding="UTF-8"?>
<svg id="Capa_1" data-name="Capa 1" xmlns="http://www.w3.org/2000/svg" viewBox="0 0 236.47 80">
  <defs>
    <style>
      .cls-1 {
        fill: #fff;
      }
    </style>
  </defs>
  <g>
    <path class="cls-1" d="M48.95,79.3c-2.21,0-4.86-.71-6.18-1.85l-.52-3.81.25-.09c1.63,3.26,4.28,4.49,6.52,4.49,2.61,0,4.46-1.38,4.46-3.88,0-2-1.32-3.14-4.98-4.77-4.06-1.81-5.72-3.26-5.72-5.81,0-3.69,2.95-5.51,6.58-5.51,2.31,0,4.31.55,5.41,1.51l.31,3.32-.28.09c-1.23-2.74-3.45-3.63-5.6-3.63-2.37,0-3.75,1.35-3.75,2.98s1.05,2.68,4.68,4.21c3.88,1.66,6.15,3.14,6.15,6.83s-3.38,5.91-7.32,5.91Z"/>
    <path class="cls-1" d="M66.17,78.77c-.8,0-1.78.03-2.55.09l-.03-.15c.65-.31.92-.52.95-1.26.03-.98.06-4,.06-8.77s-.03-7.78-.06-8.77c-.03-.74-.31-.95-.95-1.26l.03-.15c.77.06,1.75.09,2.55.09h10.24c.22.86.58,2.09.98,2.95l-.22.15c-2-1.79-4.4-2.15-7.23-2.15-.68,0-1.42,0-2.15.06-.03,1.23-.06,4.21-.06,8.24,6.09-.06,6.86-.37,7.2-1.63l.15.03c-.09.74-.12,1.26-.12,2.12s.03,1.42.12,2.12l-.15.03c-.34-1.35-1.11-1.54-7.2-1.6,0,4.28.03,7.88.06,8.89h1.23c3.75,0,7.32-.43,9.57-2.03l.15.12c-.34.68-.95,2.03-1.29,2.86h-11.29Z"/>
    <path class="cls-1" d="M100.55,78.56c-.55.4-1.6.49-2.31.49-3.48,0-4.55-2.98-5.57-5.85-.65-1.85-1.54-3.48-2.89-3.78-.34,0-.65,0-.95-.03,0,4.06.03,7.08.06,8.06.03.74.34.98.95,1.26l-.03.15c-.74-.06-1.78-.09-2.58-.09s-1.75.03-2.52.09l-.03-.15c.65-.31.92-.52.95-1.26.03-.98.06-4,.06-8.77s-.03-7.78-.06-8.77c-.03-.74-.37-1.08-.95-1.17v-.15c1.35-.06,3.32-.09,4.77-.09,5.66,0,8.37,2.31,8.37,5.08,0,3.32-2.77,5.11-6.09,5.66,1.69.65,3.38,2.83,4.65,4.92,2.09,3.45,2.98,4.49,4.15,4.21l.03.19ZM88.83,68.22c.28.03.49.03.71.03,3.38,0,4.83-2,4.83-4.68,0-2.49-1.29-4-5.48-4-.03,1.23-.06,5.11-.06,8.64Z"/>
    <path class="cls-1" d="M108.27,78.77c-.8,0-1.78.03-2.55.09l-.03-.15c.65-.31.92-.52.95-1.26.03-.98.06-4,.06-8.77s-.03-7.78-.06-8.77c-.03-.74-.31-.95-.95-1.26l.03-.15c.77.06,1.75.09,2.55.09h10.24c.22.86.58,2.09.98,2.95l-.21.15c-2-1.79-4.4-2.15-7.23-2.15-.68,0-1.42,0-2.15.06-.03,1.23-.06,4.21-.06,8.24,6.09-.06,6.86-.37,7.2-1.63l.15.03c-.09.74-.12,1.26-.12,2.12s.03,1.42.12,2.12l-.15.03c-.34-1.35-1.11-1.54-7.2-1.6,0,4.28.03,7.88.06,8.89h1.23c3.75,0,7.32-.43,9.57-2.03l.15.12c-.34.68-.95,2.03-1.29,2.86h-11.29Z"/>
    <path class="cls-1" d="M148.07,58.66c-.62.28-.92.52-.95,1.26-.12,2-.18,3.97-.18,8.77s.03,8.46.09,10.46h-.89c-5.94-6.34-11.54-12.18-17.16-17.9.12,2.03.15,4.34.15,7.44,0,4.46.12,6.77.25,8.77.03.74.37.98.95,1.26l-.03.15c-.58-.06-1.2-.09-1.69-.09-.46,0-1.05.03-1.79.09l-.03-.15c.65-.31.92-.52.95-1.26.12-2,.18-4,.18-8.77s-.03-7.01-.06-7.84c-.03-1.11-.55-1.82-1.35-2.18l.03-.15c1.05.06,1.85.09,2.34.09.62,0,1.23,0,1.85-.03,5.78,6.25,11.14,11.81,15.1,15.78-.06-1.72-.09-4.15-.09-5.66,0-4.46-.12-6.77-.25-8.77-.03-.74-.37-.98-.95-1.26l.03-.15c.58.06,1.2.09,1.69.09.46,0,1.05-.03,1.79-.09l.03.15Z"/>
    <path class="cls-1" d="M174.46,78.71l-.03.15c-.89-.06-1.97-.09-2.89-.09s-2.25.03-3.05.09l-.03-.15c.86-.37,1.08-.65.8-1.26-.31-.71-1.08-2.46-2.03-4.58h-9.11c-.71,1.66-1.29,3.11-1.69,4.09-.43,1.08-.25,1.35.8,1.75l-.03.15c-.77-.06-1.51-.09-2.25-.09s-1.42.03-2.12.09l-.03-.15c.58-.18,1.2-.62,1.66-1.51,2.61-5.2,6.61-13.57,8.92-18.95h.43c2.03,4.46,6.64,14.37,8.83,18.7.46.89,1.2,1.57,1.81,1.75ZM166.61,71.54c-1.45-3.17-3.08-6.77-4.06-8.83-1.02,2.18-2.52,5.69-3.88,8.83h7.94Z"/>
    <path class="cls-1" d="M186.02,79.3c-2.21,0-4.86-.71-6.18-1.85l-.52-3.81.25-.09c1.63,3.26,4.28,4.49,6.52,4.49,2.61,0,4.46-1.38,4.46-3.88,0-2-1.32-3.14-4.98-4.77-4.06-1.81-5.72-3.26-5.72-5.81,0-3.69,2.95-5.51,6.58-5.51,2.31,0,4.31.55,5.41,1.51l.31,3.32-.28.09c-1.23-2.74-3.45-3.63-5.6-3.63-2.37,0-3.75,1.35-3.75,2.98s1.05,2.68,4.68,4.21c3.88,1.66,6.15,3.14,6.15,6.83s-3.38,5.91-7.32,5.91Z"/>
  </g>
  <g>
    <g>
      <path class="cls-1" d="M175.64,30.33l-1.93-23.3-10.78,23.55-10.95-23.15-1.68,22.85c-.79.17-1.41.24-2.15-.03l2.32-26.15c.09-1.05-.7-1.76-1.07-2.85l4.54-.06,10.48,21.91,9.84-21.86c1.34-.19,2.49-.13,3.88-.08-.24,2.59-.01,5.03.24,7.68l2.03,21.55c-1.56.07-2.97.12-4.78-.06Z"/>
      <path class="cls-1" d="M229.94,29.94c-4.8,1.78-9.84.89-14.16-1.64.1-2.1,0-3.99.53-6.15,1.41,1.84,1.93,3.4,3.46,4.68,2.96,2.48,7.34,3.27,10.58.97,1.52-1.08,1.78-3.04,1.51-4.74-.26-1.61-1.44-3.16-3.14-3.94l-7.76-3.6c-2.86-1.33-4.59-3.86-4.55-6.88.04-2.95,1.65-5.82,4.68-7.02,4.07-1.61,8.73-1.04,12.52,1.16,0,1.7.31,3.34-.69,5.07-2.13-4.47-6.69-6.77-10.96-4.71-1.5.73-1.97,2.36-1.95,3.8.09,5.97,11.2,5.53,14.42,11.05,2.53,4.34.44,10.12-4.48,11.95Z"/>
      <path class="cls-1" d="M141.3,7.4c-2.57-4.08-6.9-6.17-11.66-6.56-5.45-.44-10.64,1.82-13.67,6.06-1.9,2.66-2.87,5.87-2.79,9.07-.04,2.86.69,5.69,2.28,8.21,2.57,4.08,6.9,6.17,11.66,6.56,5.45.44,10.64-1.82,13.67-6.06,1.9-2.66,2.87-5.87,2.79-9.07.04-2.86-.69-5.69-2.28-8.21ZM135.72,26.94c-1.59,1.4-3.34,1.85-3.9,1.99-3.72.93-7.81-.42-10.38-3.78-1-1.3-1.6-2.37-2.08-3.48-.84-1.91-2.08-5.61-1.52-10.84.43-2.52,1.5-4.69,3.22-6.2,1.59-1.4,3.33-1.85,3.9-1.99,3.72-.93,7.81.42,10.38,3.78,1,1.3,1.6,2.37,2.08,3.48.84,1.92,2.07,5.59,1.52,10.78-.43,2.55-1.5,4.74-3.22,6.26Z"/>
      <path class="cls-1" d="M111.21,27.41c.18.98.16,1.95-.19,3.09-6.58-.39-12.96-.23-19.57-.24l.03-25.46-.23-3.54,4.87-.05v27.37c5.13.03,9.91-.41,15.09-1.17Z"/>
      <path class="cls-1" d="M199.81.75l-3.93,1.02c.76,1.24.43,2.21-.07,3.41l-10.56,25.01c.54.25,1.66.39,2.13.03l4.05-10.11,11.82.08,4.05,9.99c1.8.23,3.48.42,5.21.08L199.81.75ZM192.04,18.52l5.22-12.42,5.12,12.26-10.34.16Z"/>
      <g>
        <path class="cls-1" d="M72.77,25.09c-2.68,7.25-13.6,6.94-19.11,3.24.13-2.1.05-3.92.47-6,1.06.88,1.31,1.85,1.99,2.84,2.67,3.87,8.02,5.43,12.01,2.72,1.54-1.04,1.83-3.14,1.49-4.85-.29-1.46-1.32-2.98-2.95-3.76l-7.95-3.78c-2.92-1.39-4.63-4.06-4.47-7.17s2-5.82,5.11-6.88c4.05-1.38,8.57-.77,12.18,1.5-.18,1.83.19,3.45-.81,5.13-1.92-4.65-6.71-7.01-11-4.91-1.47.72-1.92,2.36-1.86,3.73.27,5.85,10.29,5.46,14.01,10.57,1.63,2.24,1.86,4.93.87,7.61Z"/>
        <path class="cls-1" d="M20.91,27.48c.07,1.05.06,1.96-.3,2.93l-19.45-.12.08-22.46L.97,1.2h4.78s0,27.33,0,27.33c5.19-.03,10.09-.47,15.15-1.05Z"/>
        <path class="cls-1" d="M37.86.85c-1.36.06-2.48.56-3.86.77-.03.71.21,1.2.44,1.95l-11.23,26.57c.54.24,1.99.44,2.2-.09l4-9.88,11.77-.02,4.17,10.27,5.17-.03L37.86.85ZM30.05,18.49l5.25-12.25,5.09,12.11-10.34.14Z"/>
      </g>
    </g>
    <path class="cls-1" d="M195.18,44.14c-8.37,3.09-17.07,4.29-26.03,5.26-14.49,1.07-28.68.56-43.1-1.69-11.28-1.77-22.15-3.9-33.56-4.31l-11.55-.42c-8.31-.3-16.37.33-24.42,1.47-5.28.75-10.08,2.07-15.24,3.35,4.92-2.27,10.19-3.34,15.33-4.68,19.94-4.6,44.85-4.94,65.18-1.59l13.71,2.26c12.17,2,24.2,3.16,36.55,2.94,7.95-.2,15.27-1.15,23.12-2.58Z"/>
  </g>
</svg>